mtllib OBJ_GREGS-SK6812MINI-E-DOWN-POINTING.mtl
usemtl mtl1
v 386.81055 -307.386 0
v 386.81055 -290.863 0
v 386.81055 -290.863 10
vn 165.23000000000025 0 0
f 1//1 2//1 3//1
v 386.81055 -307.386 10
f 3//1 4//1 1//1
v 415.689 -290.863 0
v 415.689 -290.863 10
vn 0 -288.78450000000043 0
f 2//2 5//2 6//2
f 6//2 3//2 2//2
v 415.689 -307.386 0
v 415.689 -307.386 10
vn -165.23000000000025 0 0
f 5//3 7//3 8//3
f 8//3 6//3 5//3
vn 0 288.78450000000043 0
f 7//4 1//4 4//4
f 4//4 8//4 7//4
v 393.89765 -293.89765 0
v 393.89765 -306.10235 0
v 393.89765 -306.10235 10
vn -122.04700000000003 0 0
f 9//5 10//5 11//5
v 393.89765 -293.89765 10
f 11//5 12//5 9//5
v 406.10235 -306.10235 0
v 406.10235 -306.10235 10
vn 0 -122.04700000000003 0
f 10//6 13//6 14//6
f 14//6 11//6 10//6
v 406.10235 -293.89765 0
v 406.10235 -293.89765 10
vn 122.04700000000003 0 0
f 13//7 15//7 16//7
f 16//7 14//7 13//7
vn 0 122.04700000000003 0
f 15//8 9//8 12//8
f 12//8 16//8 15//8
v 386.81055 -306.10235 0
v 415.689 -306.10235 0
vn 0 0 -37.069822342500714
f 17//9 18//9 7//9
v 386.81055 -306.10235 10
v 415.689 -306.10235 10
f 19//9 20//9 8//9
f 7//9 1//9 17//9
f 8//9 4//9 19//9
v 386.81055 -293.89765 0
vn 0 0 -86.49592937000027
f 21//10 9//10 10//10
v 386.81055 -293.89765 10
f 22//10 12//10 11//10
f 10//10 17//10 21//10
f 11//10 19//10 22//10
v 415.689 -293.89765 0
vn 0 0 -117.00218725500027
f 15//11 23//11 18//11
v 415.689 -293.89765 10
f 16//11 24//11 20//11
f 18//11 13//11 15//11
f 20//11 14//11 16//11
vn 0 0 -87.6359882925001
f 2//12 5//12 23//12
f 3//12 6//12 24//12
f 23//12 21//12 2//12
f 24//12 22//12 3//12