999
DXF file: c-2-1462039-9-b5-2d.dxf
999
Pro/ENGINEER 2021072 by Parametric Technology Corporation
  0
SECTION
  2
HEADER
  9
$ACADVER
  1
AC1014
  9
$DWGCODEPAGE
  3
ANSI_1252
  9
$EXTMAX
 10
420.0
 20
297.0
 30
0.0
  9
$EXTMIN
 10
0.0
 20
0.0
 30
0.0
  9
$LIMMIN
 10
0.0
 20
0.0
  9
$LIMMAX
 10
420.0
 20
297.0
  9
$VIEWCTR
 10
210.0
 20
148.5
  9
$VIEWSIZE
 40
297.0
  9
$CLAYER
  8
0
  9
$LTSCALE
 40
23.1
  9
$CELTYPE
  6
BYLAYER
  9
$DIMSCALE
 40
1.0
  9
$DIMASZ
 40
4.5
  9
$DIMEXO
 40
1.5
  9
$DIMDLI
 40
15.96
  9
$DIMEXE
 40
3.0
  9
$DIMCEN
 40
3.78
  9
$DIMLFAC
 40
0.1666666667
  9
$DIMBLK
  1
_CLOSED
  9
$DIMALT
 70
0
  9
$DIMALTF
 40
0.0393700787
  9
$DIMTXT
 40
3.0
  9
$DIMTOL
 70
1
  9
$DIMLIM
 70
0
  9
$DIMTFAC
 40
1.0
  9
$DIMTP
 40
0.01
  9
$DIMTM
 40
0.01
  9
$DIMGAP
 40
0.625
  9
$AUNITS
 70
0
  9
$PDMODE
 70
3
  9
$PDSIZE
 40
0.3125
  9
$HANDSEED
  5
409
  9
$TILEMODE
 70
1
  9
$MEASUREMENT
 70
1
  0
ENDSEC
  0
SECTION
  2
CLASSES
  0
ENDSEC
  0
SECTION
  2
TABLES
  0
TABLE
  2
VPORT
  5
8
100
AcDbSymbolTable
 70
2
  0
VPORT
  5
1F4
100
AcDbSymbolTableRecord
100
AcDbViewportTableRecord
  2
*ACTIVE
 70
0
 10
0.0
 20
0.0
 11
1.0
 21
1.0
 12
210.0
 22
148.5
 13
0.0
 23
0.0
 14
1.0
 24
1.0
 15
0.0
 25
0.0
 16
0.0
 26
0.0
 36
1.0
 17
0.0
 27
0.0
 37
0.0
 40
297.0
 41
1.4141414141
 42
50.0
 43
0.0
 44
0.0
 50
0.0
 51
0.0
 71
0
 72
100
 73
1
 74
1
 75
0
 76
0
 77
0
 78
0
  0
ENDTAB
  0
TABLE
  2
LTYPE
  5
5
100
AcDbSymbolTable
 70
6
  0
LTYPE
  5
14
100
AcDbSymbolTableRecord
100
AcDbLinetypeTableRecord
  2
BYBLOCK
 70
0
  3

 72
65
 73
0
 40
0.0
  0
LTYPE
  5
15
100
AcDbSymbolTableRecord
100
AcDbLinetypeTableRecord
  2
BYLAYER
 70
0
  3

 72
65
 73
0
 40
0.0
  0
LTYPE
  5
16
100
AcDbSymbolTableRecord
100
AcDbLinetypeTableRecord
  2
CONTINUOUS
 70
64
  3
Solid line
 72
65
 73
0
 40
0.0
  0
LTYPE
  5
1F5
100
AcDbSymbolTableRecord
100
AcDbLinetypeTableRecord
  2
CENTER
 70
64
  3
____ _ ____ _ ____ _ ____ _ ____ _ ____ _ ____
 72
65
 73
4
 40
0.6
 49
0.375
 74
0
 49
-0.075
 74
0
 49
0.075
 74
0
 49
-0.075
 74
0
  0
LTYPE
  5
1F6
100
AcDbSymbolTableRecord
100
AcDbLinetypeTableRecord
  2
HIDDEN
 70
64
  3
- - - - - - - - - - - - - - - - - - - -
 72
65
 73
2
 40
0.2
 49
0.1
 74
0
 49
-0.1
 74
0
  0
LTYPE
  5
1F7
100
AcDbSymbolTableRecord
100
AcDbLinetypeTableRecord
  2
PHANTOM
 70
64
  3
_____ _ _ _____ _ _ _____ _ _ _____
 72
65
 73
6
 40
0.8
 49
0.45
 74
0
 49
-0.05
 74
0
 49
0.1
 74
0
 49
-0.05
 74
0
 49
0.1
 74
0
 49
-0.05
 74
0
  0
LTYPE
  5
1F8
100
AcDbSymbolTableRecord
100
AcDbLinetypeTableRecord
  2
DOT
 70
64
  3
. . . . . . . . . . . . . . . . . . . .
 72
65
 73
2
 40
0.2
 49
0.1
 74
0
 49
-0.1
 74
0
  0
LTYPE
  5
1F9
100
AcDbSymbolTableRecord
100
AcDbLinetypeTableRecord
  2
DASHED
 70
64
  3
- - - - - - - - - - - - - - - - - - - -
 72
65
 73
2
 40
0.2
 49
0.1
 74
0
 49
-0.1
 74
0
  0
ENDTAB
  0
TABLE
  2
LAYER
  5
2
100
AcDbSymbolTable
 70
36
  0
LAYER
  5
10
100
AcDbSymbolTableRecord
100
AcDbLayerTableRecord
  2
0
 70
0
 62
7
  6
CONTINUOUS
  0
LAYER
  5
1FA
100
AcDbSymbolTableRecord
100
AcDbLayerTableRecord
  2
DEFAULT_1
 70
0
 62
7
  6
CENTER
  0
LAYER
  5
1FB
100
AcDbSymbolTableRecord
100
AcDbLayerTableRecord
  2
DEFAULT_2
 70
0
 62
8
  6
HIDDEN
  0
LAYER
  5
1FC
100
AcDbSymbolTableRecord
100
AcDbLayerTableRecord
  2
DEFAULT_3
 70
0
 62
7
  6
PHANTOM
  0
LAYER
  5
1FD
100
AcDbSymbolTableRecord
100
AcDbLayerTableRecord
  2
DRAFT_ENTITY
 70
0
 62
7
  6
CONTINUOUS
  0
LAYER
  5
1FE
100
AcDbSymbolTableRecord
100
AcDbLayerTableRecord
  2
DRAFT_GEOM
 70
0
 62
7
  6
CONTINUOUS
  0
LAYER
  5
1FF
100
AcDbSymbolTableRecord
100
AcDbLayerTableRecord
  2
DRAFT_GRP
 70
0
 62
7
  6
CONTINUOUS
  0
LAYER
  5
200
100
AcDbSymbolTableRecord
100
AcDbLayerTableRecord
  2
DRAFT_OTHER
 70
0
 62
7
  6
CONTINUOUS
  0
LAYER
  5
201
100
AcDbSymbolTableRecord
100
AcDbLayerTableRecord
  2
DTM_ALL
 70
0
 62
7
  6
CONTINUOUS
  0
LAYER
  5
202
100
AcDbSymbolTableRecord
100
AcDbLayerTableRecord
  2
DTM_AXIS
 70
0
 62
7
  6
CONTINUOUS
  0
LAYER
  5
203
100
AcDbSymbolTableRecord
100
AcDbLayerTableRecord
  2
DTM_MAJOR
 70
0
 62
7
  6
CONTINUOUS
  0
LAYER
  5
204
100
AcDbSymbolTableRecord
100
AcDbLayerTableRecord
  2
NOTE
 70
0
 62
7
  6
CONTINUOUS
  0
ENDTAB
  0
TABLE
  2
STYLE
  5
3
100
AcDbSymbolTable
 70
1
  0
STYLE
  5
11
100
AcDbSymbolTableRecord
100
AcDbTextStyleTableRecord
  2
STANDARD
 70
0
 40
0.0
 41
0.95
 50
0.0
 71
0
 42
0.2
  3
txt
  4

  0
STYLE
  5
205
100
AcDbSymbolTableRecord
100
AcDbTextStyleTableRecord
  2
TEXTSTYLE_1
 70
0
 40
0.0
 41
0.8
 50
0.0
 71
0
 42
0.2
  3
gdt
  4

  0
STYLE
  5
206
100
AcDbSymbolTableRecord
100
AcDbTextStyleTableRecord
  2
TEXTSTYLE_2
 70
0
 40
0.0
 41
0.8
 50
0.0
 71
0
 42
0.2
  3
txt
  4

  0
ENDTAB
  0
TABLE
  2
VIEW
  5
6
100
AcDbSymbolTable
 70
0
  0
ENDTAB
  0
TABLE
  2
UCS
  5
7
100
AcDbSymbolTable
 70
0
  0
ENDTAB
  0
TABLE
  2
APPID
  5
9
100
AcDbSymbolTable
 70
1
  0
APPID
  5
207
100
AcDbSymbolTableRecord
100
AcDbRegAppTableRecord
  2
ACAD
 70
0
  0
ENDTAB
  0
TABLE
  2
BLOCK_RECORD
  5
1
100
AcDbSymbolTable
 70
0
  0
BLOCK_RECORD
  5
1F
100
AcDbSymbolTableRecord
100
AcDbBlockTableRecord
  2
*MODEL_SPACE
  0
BLOCK_RECORD
  5
1B
100
AcDbSymbolTableRecord
100
AcDbBlockTableRecord
  2
*PAPER_SPACE
  0
BLOCK_RECORD
  5
208
100
AcDbSymbolTableRecord
100
AcDbBlockTableRecord
  2
_CLOSED
  0
BLOCK_RECORD
  5
209
100
AcDbSymbolTableRecord
100
AcDbBlockTableRecord
  2
TE_CONNECTIVITY_BL0
  0
ENDTAB
  0
TABLE
  2
DIMSTYLE
  5
A
100
AcDbSymbolTable
 70
1
  0
DIMSTYLE
105
20A
100
AcDbSymbolTableRecord
100
AcDbDimStyleTableRecord
  2
STANDARD
 70
0
  3

  4

  5
_CLOSED
  6
_CLOSED
  7
_CLOSED
 40
1.0
 41
4.5
 42
1.5
 43
0.38
 44
3.0
 45
0.0
 46
0.0
 47
0.01
 48
0.01
140
3.0
141
0.09
142
0.0
143
25.4
144
1.0
145
0.0
146
1.0
147
0.625
 71
1
 72
0
 73
1
 74
1
 75
0
 76
0
 77
0
 78
8
 79
2
170
0
171
1
172
0
173
0
174
0
175
0
176
0
177
0
178
0
270
2
271
2
272
2
273
2
274
2
275
0
280
0
281
0
282
0
283
1
284
8
285
0
286
0
287
3
288
0
340
11
  0
ENDTAB
  0
ENDSEC
  0
SECTION
  2
BLOCKS
  0
BLOCK
  5
20
100
AcDbEntity
  8
0
100
AcDbBlockBegin
  2
*MODEL_SPACE
 70
0
 10
0.0
 20
0.0
 30
0.0
  3
*MODEL_SPACE
  1

  0
ENDBLK
  5
21
100
AcDbEntity
  8
0
100
AcDbBlockEnd
  0
BLOCK
  5
1C
100
AcDbEntity
  8
0
100
AcDbBlockBegin
  2
*PAPER_SPACE
 70
0
 10
0.0
 20
0.0
 30
0.0
  3
*PAPER_SPACE
  1

  0
ENDBLK
  5
1D
100
AcDbEntity
  8
0
100
AcDbBlockEnd
  0
BLOCK
  5
20B
100
AcDbEntity
  8
0
100
AcDbBlockBegin
 62
2
  6
CONTINUOUS
  2
TE_CONNECTIVITY_BL0
 70
64
 10
315.0
 20
36.0
  3
TE_CONNECTIVITY_BL0
  1

  0
LINE
  5
20C
100
AcDbEntity
  8
0
100
AcDbLine
 62
2
  6
CONTINUOUS
 10
303.4442621268
 20
31.975
 11
311.2931594095
 21
31.975
  0
LINE
  5
20D
100
AcDbEntity
  8
0
100
AcDbLine
 62
2
  6
CONTINUOUS
 10
316.3319775183
 20
31.975
 11
318.4139164045
 21
31.975
  0
LINE
  5
20E
100
AcDbEntity
  8
0
100
AcDbLine
 62
2
  6
CONTINUOUS
 10
321.4865647769
 20
31.975
 11
327.8504615515
 21
31.975
  0
LINE
  5
20F
100
AcDbEntity
  8
0
100
AcDbLine
 62
2
  6
CONTINUOUS
 10
328.3338139487
 20
33.7788957044
 11
324.0176749741
 21
33.7788957044
  0
LINE
  5
210
100
AcDbEntity
  8
0
100
AcDbLine
 62
2
  6
CONTINUOUS
 10
311.2931594095
 20
34.2561326711
 11
303.4442621268
 21
34.2561326711
  0
LINE
  5
211
100
AcDbEntity
  8
0
100
AcDbLine
 62
2
  6
CONTINUOUS
 10
301.1331145522
 20
34.8594322328
 11
308.9820118349
 21
34.8594322328
  0
LINE
  5
212
100
AcDbEntity
  8
0
100
AcDbLine
 62
2
  6
CONTINUOUS
 10
316.0776474878
 20
40.0249971366
 11
315.5942950906
 21
38.2211014322
  0
LINE
  5
213
100
AcDbEntity
  8
0
100
AcDbLine
 62
2
  6
CONTINUOUS
 10
324.4045177413
 20
35.2226125659
 11
328.2576583666
 21
35.2226125659
  0
LINE
  5
214
100
AcDbEntity
  8
0
100
AcDbLine
 62
2
  6
CONTINUOUS
 10
328.6887347141
 20
36.8314113971
 11
324.8355940889
 21
36.8314113971
  0
LINE
  5
215
100
AcDbEntity
  8
0
100
AcDbLine
 62
2
  6
CONTINUOUS
 10
308.9820118349
 20
37.1405649038
 11
301.1331145522
 21
37.1405649038
  0
LINE
  5
216
100
AcDbEntity
  8
0
100
AcDbLine
 62
2
  6
CONTINUOUS
 10
304.9810251894
 20
37.7438644655
 11
312.8299224721
 21
37.7438644655
  0
LINE
  5
217
100
AcDbEntity
  8
0
100
AcDbLine
 62
2
  6
CONTINUOUS
 10
318.0056153529
 20
38.2211014322
 11
316.3319775183
 21
31.975
  0
LINE
  5
218
100
AcDbEntity
  8
0
100
AcDbLine
 62
2
  6
CONTINUOUS
 10
315.5942950906
 20
38.2211014322
 11
318.0056153529
 21
38.2211014322
  0
LINE
  5
219
100
AcDbEntity
  8
0
100
AcDbLine
 62
2
  6
CONTINUOUS
 10
320.0875542391
 20
38.2211014322
 11
322.4988745014
 21
38.2211014322
  0
LINE
  5
21A
100
AcDbEntity
  8
0
100
AcDbLine
 62
2
  6
CONTINUOUS
 10
325.2079604115
 20
38.2211014322
 11
329.5240993861
 21
38.2211014322
  0
LINE
  5
21B
100
AcDbEntity
  8
0
100
AcDbLine
 62
2
  6
CONTINUOUS
 10
330.0074517833
 20
40.0249971366
 11
323.6435550087
 21
40.0249971366
  0
LINE
  5
21C
100
AcDbEntity
  8
0
100
AcDbLine
 62
2
  6
CONTINUOUS
 10
322.9822268986
 20
40.0249971366
 11
316.0776474878
 21
40.0249971366
  0
LINE
  5
21D
100
AcDbEntity
  8
0
100
AcDbLine
 62
2
  6
CONTINUOUS
 10
312.8299224721
 20
40.0249971366
 11
304.9810251894
 21
40.0249971366
  0
LINE
  5
21E
100
AcDbEntity
  8
0
100
AcDbLine
 62
2
  6
CONTINUOUS
 10
318.4139164045
 20
31.975
 11
320.0875542391
 21
38.2211014322
  0
LINE
  5
21F
100
AcDbEntity
  8
0
100
AcDbLine
 62
2
  6
CONTINUOUS
 10
322.4988745014
 20
38.2211014322
 11
322.9822268986
 21
40.0249971366
  0
LINE
  5
220
100
AcDbEntity
  8
0
100
AcDbLine
 62
2
  6
CONTINUOUS
 10
323.6435550087
 20
40.0249971366
 11
321.4865647769
 21
31.975
  0
LINE
  5
221
100
AcDbEntity
  8
0
100
AcDbLine
 62
2
  6
CONTINUOUS
 10
324.0176749741
 20
33.7788957044
 11
324.4045177413
 21
35.2226125659
  0
LINE
  5
222
100
AcDbEntity
  8
0
100
AcDbLine
 62
2
  6
CONTINUOUS
 10
324.8355940889
 20
36.8314113971
 11
325.2079604115
 21
38.2211014322
  0
LINE
  5
223
100
AcDbEntity
  8
0
100
AcDbLine
 62
2
  6
CONTINUOUS
 10
328.2576583666
 20
35.2226125659
 11
328.6887347141
 21
36.8314113971
  0
LINE
  5
224
100
AcDbEntity
  8
0
100
AcDbLine
 62
2
  6
CONTINUOUS
 10
327.8504615515
 20
31.975
 11
328.3338139487
 21
33.7788957044
  0
LINE
  5
225
100
AcDbEntity
  8
0
100
AcDbLine
 62
2
  6
CONTINUOUS
 10
329.5240993861
 20
38.2211014322
 11
330.0074517833
 21
40.0249971366
  0
ARC
  5
226
100
AcDbEntity
  8
0
100
AcDbCircle
 62
2
  6
CONTINUOUS
 10
304.9810251894
 20
38.884430801
 40
1.1405663355
100
AcDbArc
 50
90.0
 51
270.0
  0
ARC
  5
227
100
AcDbEntity
  8
0
100
AcDbCircle
 62
2
  6
CONTINUOUS
 10
312.8299224721
 20
38.884430801
 40
1.1405663355
100
AcDbArc
 50
270.0
 51
90.0
  0
ARC
  5
228
100
AcDbEntity
  8
0
100
AcDbCircle
 62
2
  6
CONTINUOUS
 10
311.2931594095
 20
33.1155663355
 40
1.1405663355
100
AcDbArc
 50
270.0
 51
90.0
  0
ARC
  5
229
100
AcDbEntity
  8
0
100
AcDbCircle
 62
2
  6
CONTINUOUS
 10
303.4442621268
 20
33.1155663355
 40
1.1405663355
100
AcDbArc
 50
90.0
 51
270.0
  0
ARC
  5
22A
100
AcDbEntity
  8
0
100
AcDbCircle
 62
2
  6
CONTINUOUS
 10
308.9820118349
 20
35.9999985683
 40
1.1405663355
100
AcDbArc
 50
270.0
 51
90.0
  0
ARC
  5
22B
100
AcDbEntity
  8
0
100
AcDbCircle
 62
2
  6
CONTINUOUS
 10
301.1331145522
 20
35.9999985683
 40
1.1405663355
100
AcDbArc
 50
90.0
 51
270.0
  0
LWPOLYLINE
  5
22C
100
AcDbEntity
  8
0
100
AcDbPolyline
 62
2
  6
CONTINUOUS
 90
50
 70
0
 10
304.8321514087
 20
40.0152434035
 10
304.9810251894
 20
40.025
 10
312.8299224721
 20
40.025
 10
312.9787962529
 20
40.0152434035
 10
313.125122762
 20
39.9861346138
 10
313.2663983123
 20
39.9381727309
 10
313.4002056399
 20
39.8721869044
 10
313.5242552644
 20
39.7893041338
 10
313.6364246624
 20
39.6909331688
 10
313.7347945842
 20
39.5787645087
 10
313.8176818934
 20
39.4547140529
 10
313.883668365
 20
39.3209070004
 10
313.9316249522
 20
39.1796295507
 10
313.9607311046
 20
39.0333047528
 10
313.9704888077
 20
38.8844281057
 10
313.9607311046
 20
38.7355595087
 10
313.9316249522
 20
38.5892266607
 10
313.883668365
 20
38.447957261
 10
313.8176818934
 20
38.3141502086
 10
313.7347945842
 20
38.1900997527
 10
313.6364246624
 20
38.0779310926
 10
313.5242552644
 20
37.9795601276
 10
313.4002056399
 20
37.8966693071
 10
313.2663983123
 20
37.8306834805
 10
313.125122762
 20
37.7827296476
 10
312.9787962529
 20
37.7536208579
 10
304.9810251894
 20
37.7438642614
 10
304.8321514087
 20
37.7536208579
 10
304.6858248996
 20
37.7827296476
 10
304.5445493493
 20
37.8306834805
 10
304.4107420217
 20
37.8966693071
 10
304.2866923972
 20
37.9795601276
 10
304.1745229992
 20
38.0779310926
 10
304.0761530773
 20
38.1900997527
 10
303.9932657682
 20
38.3141502086
 10
303.9272792966
 20
38.447957261
 10
303.8793227094
 20
38.5892266607
 10
303.850216557
 20
38.7355595087
 10
303.8404588539
 20
38.8844281057
 10
303.850216557
 20
39.0333047528
 10
303.8793227094
 20
39.1796295507
 10
303.9272792966
 20
39.3209070004
 10
303.9932657682
 20
39.4547140529
 10
304.0761530773
 20
39.5787645087
 10
304.1745229992
 20
39.6909331688
 10
304.2866923972
 20
39.7893041338
 10
304.4107420217
 20
39.8721869044
 10
304.5445493493
 20
39.9381727309
 10
304.6858248996
 20
39.9861346138
 10
304.8321514087
 20
40.0152434035
  0
HATCH
  5
22D
100
AcDbEntity
  8
0
100
AcDbHatch
 62
2
  6
CONTINUOUS
 10
0.0
 20
0.0
 30
0.0
210
0.0
220
0.0
230
1.0
  2
SOLID
 70
1
 71
1
 91
1
 92
1
 93
49
 72
1
 10
304.8321514087
 20
40.0152434035
 11
304.9810251894
 21
40.025
 72
1
 10
304.9810251894
 20
40.025
 11
312.8299224721
 21
40.025
 72
1
 10
312.8299224721
 20
40.025
 11
312.9787962529
 21
40.0152434035
 72
1
 10
312.9787962529
 20
40.0152434035
 11
313.125122762
 21
39.9861346138
 72
1
 10
313.125122762
 20
39.9861346138
 11
313.2663983123
 21
39.9381727309
 72
1
 10
313.2663983123
 20
39.9381727309
 11
313.4002056399
 21
39.8721869044
 72
1
 10
313.4002056399
 20
39.8721869044
 11
313.5242552644
 21
39.7893041338
 72
1
 10
313.5242552644
 20
39.7893041338
 11
313.6364246624
 21
39.6909331688
 72
1
 10
313.6364246624
 20
39.6909331688
 11
313.7347945842
 21
39.5787645087
 72
1
 10
313.7347945842
 20
39.5787645087
 11
313.8176818934
 21
39.4547140529
 72
1
 10
313.8176818934
 20
39.4547140529
 11
313.883668365
 21
39.3209070004
 72
1
 10
313.883668365
 20
39.3209070004
 11
313.9316249522
 21
39.1796295507
 72
1
 10
313.9316249522
 20
39.1796295507
 11
313.9607311046
 21
39.0333047528
 72
1
 10
313.9607311046
 20
39.0333047528
 11
313.9704888077
 21
38.8844281057
 72
1
 10
313.9704888077
 20
38.8844281057
 11
313.9607311046
 21
38.7355595087
 72
1
 10
313.9607311046
 20
38.7355595087
 11
313.9316249522
 21
38.5892266607
 72
1
 10
313.9316249522
 20
38.5892266607
 11
313.883668365
 21
38.447957261
 72
1
 10
313.883668365
 20
38.447957261
 11
313.8176818934
 21
38.3141502086
 72
1
 10
313.8176818934
 20
38.3141502086
 11
313.7347945842
 21
38.1900997527
 72
1
 10
313.7347945842
 20
38.1900997527
 11
313.6364246624
 21
38.0779310926
 72
1
 10
313.6364246624
 20
38.0779310926
 11
313.5242552644
 21
37.9795601276
 72
1
 10
313.5242552644
 20
37.9795601276
 11
313.4002056399
 21
37.8966693071
 72
1
 10
313.4002056399
 20
37.8966693071
 11
313.2663983123
 21
37.8306834805
 72
1
 10
313.2663983123
 20
37.8306834805
 11
313.125122762
 21
37.7827296476
 72
1
 10
313.125122762
 20
37.7827296476
 11
312.9787962529
 21
37.7536208579
 72
1
 10
312.9787962529
 20
37.7536208579
 11
304.9810251894
 21
37.7438642614
 72
1
 10
304.9810251894
 20
37.7438642614
 11
304.8321514087
 21
37.7536208579
 72
1
 10
304.8321514087
 20
37.7536208579
 11
304.6858248996
 21
37.7827296476
 72
1
 10
304.6858248996
 20
37.7827296476
 11
304.5445493493
 21
37.8306834805
 72
1
 10
304.5445493493
 20
37.8306834805
 11
304.4107420217
 21
37.8966693071
 72
1
 10
304.4107420217
 20
37.8966693071
 11
304.2866923972
 21
37.9795601276
 72
1
 10
304.2866923972
 20
37.9795601276
 11
304.1745229992
 21
38.0779310926
 72
1
 10
304.1745229992
 20
38.0779310926
 11
304.0761530773
 21
38.1900997527
 72
1
 10
304.0761530773
 20
38.1900997527
 11
303.9932657682
 21
38.3141502086
 72
1
 10
303.9932657682
 20
38.3141502086
 11
303.9272792966
 21
38.447957261
 72
1
 10
303.9272792966
 20
38.447957261
 11
303.8793227094
 21
38.5892266607
 72
1
 10
303.8793227094
 20
38.5892266607
 11
303.850216557
 21
38.7355595087
 72
1
 10
303.850216557
 20
38.7355595087
 11
303.8404588539
 21
38.8844281057
 72
1
 10
303.8404588539
 20
38.8844281057
 11
303.850216557
 21
39.0333047528
 72
1
 10
303.850216557
 20
39.0333047528
 11
303.8793227094
 21
39.1796295507
 72
1
 10
303.8793227094
 20
39.1796295507
 11
303.9272792966
 21
39.3209070004
 72
1
 10
303.9272792966
 20
39.3209070004
 11
303.9932657682
 21
39.4547140529
 72
1
 10
303.9932657682
 20
39.4547140529
 11
304.0761530773
 21
39.5787645087
 72
1
 10
304.0761530773
 20
39.5787645087
 11
304.1745229992
 21
39.6909331688
 72
1
 10
304.1745229992
 20
39.6909331688
 11
304.2866923972
 21
39.7893041338
 72
1
 10
304.2866923972
 20
39.7893041338
 11
304.4107420217
 21
39.8721869044
 72
1
 10
304.4107420217
 20
39.8721869044
 11
304.5445493493
 21
39.9381727309
 72
1
 10
304.5445493493
 20
39.9381727309
 11
304.6858248996
 21
39.9861346138
 72
1
 10
304.6858248996
 20
39.9861346138
 11
304.8321514087
 21
40.0152434035
 97
1
330
22C
 75
0
 76
1
 98
1
 10
0.0
 20
0.0
  0
LWPOLYLINE
  5
22E
100
AcDbEntity
  8
0
100
AcDbPolyline
 62
2
  6
CONTINUOUS
 90
9
 70
0
 10
315.5942950906
 20
38.2211002917
 10
316.0776474878
 20
40.025
 10
322.9822268986
 20
40.025
 10
322.4988745014
 20
38.2211002917
 10
320.0875542391
 20
38.2211002917
 10
318.4139164045
 20
31.9750028634
 10
316.3319775183
 20
31.9750028634
 10
318.0056153529
 20
38.2211002917
 10
315.5942950906
 20
38.2211002917
  0
HATCH
  5
22F
100
AcDbEntity
  8
0
100
AcDbHatch
 62
2
  6
CONTINUOUS
 10
0.0
 20
0.0
 30
0.0
210
0.0
220
0.0
230
1.0
  2
SOLID
 70
1
 71
1
 91
1
 92
1
 93
8
 72
1
 10
315.5942950906
 20
38.2211002917
 11
316.0776474878
 21
40.025
 72
1
 10
316.0776474878
 20
40.025
 11
322.9822268986
 21
40.025
 72
1
 10
322.9822268986
 20
40.025
 11
322.4988745014
 21
38.2211002917
 72
1
 10
322.4988745014
 20
38.2211002917
 11
320.0875542391
 21
38.2211002917
 72
1
 10
320.0875542391
 20
38.2211002917
 11
318.4139164045
 21
31.9750028634
 72
1
 10
318.4139164045
 20
31.9750028634
 11
316.3319775183
 21
31.9750028634
 72
1
 10
316.3319775183
 20
31.9750028634
 11
318.0056153529
 21
38.2211002917
 72
1
 10
318.0056153529
 20
38.2211002917
 11
315.5942950906
 21
38.2211002917
 97
1
330
22E
 75
0
 76
1
 98
1
 10
0.0
 20
0.0
  0
LWPOLYLINE
  5
230
100
AcDbEntity
  8
0
100
AcDbPolyline
 62
2
  6
CONTINUOUS
 90
6
 70
0
 10
330.0074517833
 20
40.025
 10
329.5240993861
 20
38.2211002917
 10
325.2079604115
 20
38.2211002917
 10
321.4865647769
 20
31.9750028634
 10
323.6435550087
 20
40.025
 10
330.0074517833
 20
40.025
  0
HATCH
  5
231
100
AcDbEntity
  8
0
100
AcDbHatch
 62
2
  6
CONTINUOUS
 10
0.0
 20
0.0
 30
0.0
210
0.0
220
0.0
230
1.0
  2
SOLID
 70
1
 71
1
 91
1
 92
1
 93
5
 72
1
 10
330.0074517833
 20
40.025
 11
329.5240993861
 21
38.2211002917
 72
1
 10
329.5240993861
 20
38.2211002917
 11
325.2079604115
 21
38.2211002917
 72
1
 10
325.2079604115
 20
38.2211002917
 11
321.4865647769
 21
31.9750028634
 72
1
 10
321.4865647769
 20
31.9750028634
 11
323.6435550087
 21
40.025
 72
1
 10
323.6435550087
 20
40.025
 11
330.0074517833
 21
40.025
 97
1
330
230
 75
0
 76
1
 98
1
 10
0.0
 20
0.0
  0
SOLID
  5
232
100
AcDbEntity
  8
0
100
AcDbTrace
 62
2
  6
CONTINUOUS
 10
312.9787962529
 20
37.7536208579
 11
312.8299224721
 21
37.7438642614
 12
304.9810251894
 22
37.7438642614
 13
304.9810251894
 23
37.7438642614
  0
LWPOLYLINE
  5
233
100
AcDbEntity
  8
0
100
AcDbPolyline
 62
2
  6
CONTINUOUS
 90
50
 70
0
 10
300.9842407715
 20
37.1308086795
 10
301.1331145522
 20
37.140565276
 10
308.9820118349
 20
37.140565276
 10
309.1308856156
 20
37.1308086795
 10
309.2772121247
 20
37.1016998898
 10
309.418487675
 20
37.0537460569
 10
309.5522950027
 20
36.9877602304
 10
309.6763446272
 20
36.9048694098
 10
309.7885140251
 20
36.8064984448
 10
309.886883947
 20
36.6943297847
 10
309.9697712562
 20
36.5702793289
 10
310.0357577278
 20
36.4364722765
 10
310.083714315
 20
36.2952028767
 10
310.1128204673
 20
36.1488700288
 10
310.1225781704
 20
36.0000014317
 10
310.1128204673
 20
35.8511247847
 10
310.083714315
 20
35.7047999867
 10
310.0357577278
 20
35.563522537
 10
309.9697712562
 20
35.4297154846
 10
309.886883947
 20
35.3056650287
 10
309.7885140251
 20
35.1934963686
 10
309.6763446272
 20
35.0951254036
 10
309.5522950027
 20
35.0122426331
 10
309.418487675
 20
34.9462487565
 10
309.2772121247
 20
34.8982949236
 10
309.1308856156
 20
34.8691861339
 10
301.1331145522
 20
34.8594295374
 10
300.9842407715
 20
34.8691861339
 10
300.8379142624
 20
34.8982949236
 10
300.6966387121
 20
34.9462487565
 10
300.5628313844
 20
35.0122426331
 10
300.4387817599
 20
35.0951254036
 10
300.326612362
 20
35.1934963686
 10
300.2282424401
 20
35.3056650287
 10
300.1453551309
 20
35.4297154846
 10
300.0793686593
 20
35.563522537
 10
300.0314120721
 20
35.7047999867
 10
300.0023059198
 20
35.8511247847
 10
299.9925482167
 20
36.0000014317
 10
300.0023059198
 20
36.1488700288
 10
300.0314120721
 20
36.2952028767
 10
300.0793686593
 20
36.4364722765
 10
300.1453551309
 20
36.5702793289
 10
300.2282424401
 20
36.6943297847
 10
300.326612362
 20
36.8064984448
 10
300.4387817599
 20
36.9048694098
 10
300.5628313844
 20
36.9877602304
 10
300.6966387121
 20
37.0537460569
 10
300.8379142624
 20
37.1016998898
 10
300.9842407715
 20
37.1308086795
  0
HATCH
  5
234
100
AcDbEntity
  8
0
100
AcDbHatch
 62
2
  6
CONTINUOUS
 10
0.0
 20
0.0
 30
0.0
210
0.0
220
0.0
230
1.0
  2
SOLID
 70
1
 71
1
 91
1
 92
1
 93
49
 72
1
 10
300.9842407715
 20
37.1308086795
 11
301.1331145522
 21
37.140565276
 72
1
 10
301.1331145522
 20
37.140565276
 11
308.9820118349
 21
37.140565276
 72
1
 10
308.9820118349
 20
37.140565276
 11
309.1308856156
 21
37.1308086795
 72
1
 10
309.1308856156
 20
37.1308086795
 11
309.2772121247
 21
37.1016998898
 72
1
 10
309.2772121247
 20
37.1016998898
 11
309.418487675
 21
37.0537460569
 72
1
 10
309.418487675
 20
37.0537460569
 11
309.5522950027
 21
36.9877602304
 72
1
 10
309.5522950027
 20
36.9877602304
 11
309.6763446272
 21
36.9048694098
 72
1
 10
309.6763446272
 20
36.9048694098
 11
309.7885140251
 21
36.8064984448
 72
1
 10
309.7885140251
 20
36.8064984448
 11
309.886883947
 21
36.6943297847
 72
1
 10
309.886883947
 20
36.6943297847
 11
309.9697712562
 21
36.5702793289
 72
1
 10
309.9697712562
 20
36.5702793289
 11
310.0357577278
 21
36.4364722765
 72
1
 10
310.0357577278
 20
36.4364722765
 11
310.083714315
 21
36.2952028767
 72
1
 10
310.083714315
 20
36.2952028767
 11
310.1128204673
 21
36.1488700288
 72
1
 10
310.1128204673
 20
36.1488700288
 11
310.1225781704
 21
36.0000014317
 72
1
 10
310.1225781704
 20
36.0000014317
 11
310.1128204673
 21
35.8511247847
 72
1
 10
310.1128204673
 20
35.8511247847
 11
310.083714315
 21
35.7047999867
 72
1
 10
310.083714315
 20
35.7047999867
 11
310.0357577278
 21
35.563522537
 72
1
 10
310.0357577278
 20
35.563522537
 11
309.9697712562
 21
35.4297154846
 72
1
 10
309.9697712562
 20
35.4297154846
 11
309.886883947
 21
35.3056650287
 72
1
 10
309.886883947
 20
35.3056650287
 11
309.7885140251
 21
35.1934963686
 72
1
 10
309.7885140251
 20
35.1934963686
 11
309.6763446272
 21
35.0951254036
 72
1
 10
309.6763446272
 20
35.0951254036
 11
309.5522950027
 21
35.0122426331
 72
1
 10
309.5522950027
 20
35.0122426331
 11
309.418487675
 21
34.9462487565
 72
1
 10
309.418487675
 20
34.9462487565
 11
309.2772121247
 21
34.8982949236
 72
1
 10
309.2772121247
 20
34.8982949236
 11
309.1308856156
 21
34.8691861339
 72
1
 10
309.1308856156
 20
34.8691861339
 11
301.1331145522
 21
34.8594295374
 72
1
 10
301.1331145522
 20
34.8594295374
 11
300.9842407715
 21
34.8691861339
 72
1
 10
300.9842407715
 20
34.8691861339
 11
300.8379142624
 21
34.8982949236
 72
1
 10
300.8379142624
 20
34.8982949236
 11
300.6966387121
 21
34.9462487565
 72
1
 10
300.6966387121
 20
34.9462487565
 11
300.5628313844
 21
35.0122426331
 72
1
 10
300.5628313844
 20
35.0122426331
 11
300.4387817599
 21
35.0951254036
 72
1
 10
300.4387817599
 20
35.0951254036
 11
300.326612362
 21
35.1934963686
 72
1
 10
300.326612362
 20
35.1934963686
 11
300.2282424401
 21
35.3056650287
 72
1
 10
300.2282424401
 20
35.3056650287
 11
300.1453551309
 21
35.4297154846
 72
1
 10
300.1453551309
 20
35.4297154846
 11
300.0793686593
 21
35.563522537
 72
1
 10
300.0793686593
 20
35.563522537
 11
300.0314120721
 21
35.7047999867
 72
1
 10
300.0314120721
 20
35.7047999867
 11
300.0023059198
 21
35.8511247847
 72
1
 10
300.0023059198
 20
35.8511247847
 11
299.9925482167
 21
36.0000014317
 72
1
 10
299.9925482167
 20
36.0000014317
 11
300.0023059198
 21
36.1488700288
 72
1
 10
300.0023059198
 20
36.1488700288
 11
300.0314120721
 21
36.2952028767
 72
1
 10
300.0314120721
 20
36.2952028767
 11
300.0793686593
 21
36.4364722765
 72
1
 10
300.0793686593
 20
36.4364722765
 11
300.1453551309
 21
36.5702793289
 72
1
 10
300.1453551309
 20
36.5702793289
 11
300.2282424401
 21
36.6943297847
 72
1
 10
300.2282424401
 20
36.6943297847
 11
300.326612362
 21
36.8064984448
 72
1
 10
300.326612362
 20
36.8064984448
 11
300.4387817599
 21
36.9048694098
 72
1
 10
300.4387817599
 20
36.9048694098
 11
300.5628313844
 21
36.9877602304
 72
1
 10
300.5628313844
 20
36.9877602304
 11
300.6966387121
 21
37.0537460569
 72
1
 10
300.6966387121
 20
37.0537460569
 11
300.8379142624
 21
37.1016998898
 72
1
 10
300.8379142624
 20
37.1016998898
 11
300.9842407715
 21
37.1308086795
 97
1
330
233
 75
0
 76
1
 98
1
 10
0.0
 20
0.0
  0
LWPOLYLINE
  5
235
100
AcDbEntity
  8
0
100
AcDbPolyline
 62
2
  6
CONTINUOUS
 90
7
 70
0
 10
328.6887347141
 20
36.831413186
 10
328.2576583666
 20
35.2226132082
 10
324.4045177413
 20
35.2226132082
 10
321.4865647769
 20
31.9750028634
 10
325.2079604115
 20
38.2211002917
 10
324.8355940889
 20
36.831413186
 10
328.6887347141
 20
36.831413186
  0
HATCH
  5
236
100
AcDbEntity
  8
0
100
AcDbHatch
 62
2
  6
CONTINUOUS
 10
0.0
 20
0.0
 30
0.0
210
0.0
220
0.0
230
1.0
  2
SOLID
 70
1
 71
1
 91
1
 92
1
 93
6
 72
1
 10
328.6887347141
 20
36.831413186
 11
328.2576583666
 21
35.2226132082
 72
1
 10
328.2576583666
 20
35.2226132082
 11
324.4045177413
 21
35.2226132082
 72
1
 10
324.4045177413
 20
35.2226132082
 11
321.4865647769
 21
31.9750028634
 72
1
 10
321.4865647769
 20
31.9750028634
 11
325.2079604115
 21
38.2211002917
 72
1
 10
325.2079604115
 20
38.2211002917
 11
324.8355940889
 21
36.831413186
 72
1
 10
324.8355940889
 20
36.831413186
 11
328.6887347141
 21
36.831413186
 97
1
330
235
 75
0
 76
1
 98
1
 10
0.0
 20
0.0
  0
SOLID
  5
237
100
AcDbEntity
  8
0
100
AcDbTrace
 62
2
  6
CONTINUOUS
 10
309.1308856156
 20
34.8691861339
 11
308.9820118349
 21
34.8594295374
 12
301.1331145522
 22
34.8594295374
 13
301.1331145522
 23
34.8594295374
  0
LWPOLYLINE
  5
238
100
AcDbEntity
  8
0
100
AcDbPolyline
 62
2
  6
CONTINUOUS
 90
50
 70
0
 10
303.2953883461
 20
34.2463739555
 10
303.4442621268
 20
34.256130552
 10
311.2931594095
 20
34.256130552
 10
311.4420331903
 20
34.2463739555
 10
311.5883596994
 20
34.2172651658
 10
311.7296352496
 20
34.1693113329
 10
311.8634425773
 20
34.1033255064
 10
311.9874922018
 20
34.0204346859
 10
312.0996615998
 20
33.9220717708
 10
312.1980315216
 20
33.8099031107
 10
312.2809188308
 20
33.6858526549
 10
312.3469053024
 20
33.5520456025
 10
312.3948618896
 20
33.4107681527
 10
312.4239680419
 20
33.2644433548
 10
312.4337257451
 20
33.1155667077
 10
312.4239680419
 20
32.9666900607
 10
312.3948618896
 20
32.8203652627
 10
312.3469053024
 20
32.679087813
 10
312.2809188308
 20
32.5452807606
 10
312.1980315216
 20
32.4212303047
 10
312.0996615998
 20
32.3090616446
 10
311.9874922018
 20
32.2106906796
 10
311.8634425773
 20
32.1278079091
 10
311.7296352496
 20
32.0618220825
 10
311.5883596994
 20
32.0138601996
 10
311.4420331903
 20
31.98475946
 10
303.4442621268
 20
31.9750028634
 10
303.2953883461
 20
31.98475946
 10
303.149061837
 20
32.0138601996
 10
303.0077862867
 20
32.0618220825
 10
302.8739789591
 20
32.1278079091
 10
302.7499293345
 20
32.2106906796
 10
302.6377599366
 20
32.3090616446
 10
302.5393900147
 20
32.4212303047
 10
302.4565027056
 20
32.5452807606
 10
302.390516234
 20
32.679087813
 10
302.3425596467
 20
32.8203652627
 10
302.3134534944
 20
32.9666900607
 10
302.3036957913
 20
33.1155667077
 10
302.3134534944
 20
33.2644433548
 10
302.3425596467
 20
33.4107681527
 10
302.390516234
 20
33.5520456025
 10
302.4565027056
 20
33.6858526549
 10
302.5393900147
 20
33.8099031107
 10
302.6377599366
 20
33.9220717708
 10
302.7499293345
 20
34.0204346859
 10
302.8739789591
 20
34.1033255064
 10
303.0077862867
 20
34.1693113329
 10
303.149061837
 20
34.2172651658
 10
303.2953883461
 20
34.2463739555
  0
HATCH
  5
239
100
AcDbEntity
  8
0
100
AcDbHatch
 62
2
  6
CONTINUOUS
 10
0.0
 20
0.0
 30
0.0
210
0.0
220
0.0
230
1.0
  2
SOLID
 70
1
 71
1
 91
1
 92
1
 93
49
 72
1
 10
303.2953883461
 20
34.2463739555
 11
303.4442621268
 21
34.256130552
 72
1
 10
303.4442621268
 20
34.256130552
 11
311.2931594095
 21
34.256130552
 72
1
 10
311.2931594095
 20
34.256130552
 11
311.4420331903
 21
34.2463739555
 72
1
 10
311.4420331903
 20
34.2463739555
 11
311.5883596994
 21
34.2172651658
 72
1
 10
311.5883596994
 20
34.2172651658
 11
311.7296352496
 21
34.1693113329
 72
1
 10
311.7296352496
 20
34.1693113329
 11
311.8634425773
 21
34.1033255064
 72
1
 10
311.8634425773
 20
34.1033255064
 11
311.9874922018
 21
34.0204346859
 72
1
 10
311.9874922018
 20
34.0204346859
 11
312.0996615998
 21
33.9220717708
 72
1
 10
312.0996615998
 20
33.9220717708
 11
312.1980315216
 21
33.8099031107
 72
1
 10
312.1980315216
 20
33.8099031107
 11
312.2809188308
 21
33.6858526549
 72
1
 10
312.2809188308
 20
33.6858526549
 11
312.3469053024
 21
33.5520456025
 72
1
 10
312.3469053024
 20
33.5520456025
 11
312.3948618896
 21
33.4107681527
 72
1
 10
312.3948618896
 20
33.4107681527
 11
312.4239680419
 21
33.2644433548
 72
1
 10
312.4239680419
 20
33.2644433548
 11
312.4337257451
 21
33.1155667077
 72
1
 10
312.4337257451
 20
33.1155667077
 11
312.4239680419
 21
32.9666900607
 72
1
 10
312.4239680419
 20
32.9666900607
 11
312.3948618896
 21
32.8203652627
 72
1
 10
312.3948618896
 20
32.8203652627
 11
312.3469053024
 21
32.679087813
 72
1
 10
312.3469053024
 20
32.679087813
 11
312.2809188308
 21
32.5452807606
 72
1
 10
312.2809188308
 20
32.5452807606
 11
312.1980315216
 21
32.4212303047
 72
1
 10
312.1980315216
 20
32.4212303047
 11
312.0996615998
 21
32.3090616446
 72
1
 10
312.0996615998
 20
32.3090616446
 11
311.9874922018
 21
32.2106906796
 72
1
 10
311.9874922018
 20
32.2106906796
 11
311.8634425773
 21
32.1278079091
 72
1
 10
311.8634425773
 20
32.1278079091
 11
311.7296352496
 21
32.0618220825
 72
1
 10
311.7296352496
 20
32.0618220825
 11
311.5883596994
 21
32.0138601996
 72
1
 10
311.5883596994
 20
32.0138601996
 11
311.4420331903
 21
31.98475946
 72
1
 10
311.4420331903
 20
31.98475946
 11
303.4442621268
 21
31.9750028634
 72
1
 10
303.4442621268
 20
31.9750028634
 11
303.2953883461
 21
31.98475946
 72
1
 10
303.2953883461
 20
31.98475946
 11
303.149061837
 21
32.0138601996
 72
1
 10
303.149061837
 20
32.0138601996
 11
303.0077862867
 21
32.0618220825
 72
1
 10
303.0077862867
 20
32.0618220825
 11
302.8739789591
 21
32.1278079091
 72
1
 10
302.8739789591
 20
32.1278079091
 11
302.7499293345
 21
32.2106906796
 72
1
 10
302.7499293345
 20
32.2106906796
 11
302.6377599366
 21
32.3090616446
 72
1
 10
302.6377599366
 20
32.3090616446
 11
302.5393900147
 21
32.4212303047
 72
1
 10
302.5393900147
 20
32.4212303047
 11
302.4565027056
 21
32.5452807606
 72
1
 10
302.4565027056
 20
32.5452807606
 11
302.390516234
 21
32.679087813
 72
1
 10
302.390516234
 20
32.679087813
 11
302.3425596467
 21
32.8203652627
 72
1
 10
302.3425596467
 20
32.8203652627
 11
302.3134534944
 21
32.9666900607
 72
1
 10
302.3134534944
 20
32.9666900607
 11
302.3036957913
 21
33.1155667077
 72
1
 10
302.3036957913
 20
33.1155667077
 11
302.3134534944
 21
33.2644433548
 72
1
 10
302.3134534944
 20
33.2644433548
 11
302.3425596467
 21
33.4107681527
 72
1
 10
302.3425596467
 20
33.4107681527
 11
302.390516234
 21
33.5520456025
 72
1
 10
302.390516234
 20
33.5520456025
 11
302.4565027056
 21
33.6858526549
 72
1
 10
302.4565027056
 20
33.6858526549
 11
302.5393900147
 21
33.8099031107
 72
1
 10
302.5393900147
 20
33.8099031107
 11
302.6377599366
 21
33.9220717708
 72
1
 10
302.6377599366
 20
33.9220717708
 11
302.7499293345
 21
34.0204346859
 72
1
 10
302.7499293345
 20
34.0204346859
 11
302.8739789591
 21
34.1033255064
 72
1
 10
302.8739789591
 20
34.1033255064
 11
303.0077862867
 21
34.1693113329
 72
1
 10
303.0077862867
 20
34.1693113329
 11
303.149061837
 21
34.2172651658
 72
1
 10
303.149061837
 20
34.2172651658
 11
303.2953883461
 21
34.2463739555
 97
1
330
238
 75
0
 76
1
 98
1
 10
0.0
 20
0.0
  0
SOLID
  5
23A
100
AcDbEntity
  8
0
100
AcDbTrace
 62
2
  6
CONTINUOUS
 10
311.4420331903
 20
31.98475946
 11
311.2931594095
 21
31.9750028634
 12
303.4442621268
 22
31.9750028634
 13
303.4442621268
 23
31.9750028634
  0
LWPOLYLINE
  5
23B
100
AcDbEntity
  8
0
100
AcDbPolyline
 62
2
  6
CONTINUOUS
 90
6
 70
0
 10
328.3338139487
 20
33.7788945218
 10
327.8504615515
 20
31.9750028634
 10
321.4865647769
 20
31.9750028634
 10
324.4045177413
 20
35.2226132082
 10
324.0176749741
 20
33.7788945218
 10
328.3338139487
 20
33.7788945218
  0
HATCH
  5
23C
100
AcDbEntity
  8
0
100
AcDbHatch
 62
2
  6
CONTINUOUS
 10
0.0
 20
0.0
 30
0.0
210
0.0
220
0.0
230
1.0
  2
SOLID
 70
1
 71
1
 91
1
 92
1
 93
5
 72
1
 10
328.3338139487
 20
33.7788945218
 11
327.8504615515
 21
31.9750028634
 72
1
 10
327.8504615515
 20
31.9750028634
 11
321.4865647769
 21
31.9750028634
 72
1
 10
321.4865647769
 20
31.9750028634
 11
324.4045177413
 21
35.2226132082
 72
1
 10
324.4045177413
 20
35.2226132082
 11
324.0176749741
 21
33.7788945218
 72
1
 10
324.0176749741
 20
33.7788945218
 11
328.3338139487
 21
33.7788945218
 97
1
330
23B
 75
0
 76
1
 98
1
 10
0.0
 20
0.0
  0
ENDBLK
  5
23D
100
AcDbEntity
  8
0
  6
BYBLOCK
 62
0
100
AcDbBlockEnd
  0
BLOCK
  5
23E
100
AcDbEntity
  8
0
100
AcDbBlockBegin
  2
_CLOSED
 70
64
 10
0.0
 20
0.0
  3
_CLOSED
  1

  0
LINE
  5
23F
100
AcDbEntity
  8
0
  6
BYBLOCK
 62
0
100
AcDbLine
 10
0.0
 20
0.0
 11
-1.0
 21
0.1666666667
  0
LINE
  5
240
100
AcDbEntity
  8
0
  6
BYBLOCK
 62
0
100
AcDbLine
 10
-1.0
 20
0.1666666667
 11
-1.0
 21
-0.1666666667
  0
LINE
  5
241
100
AcDbEntity
  8
0
  6
BYBLOCK
 62
0
100
AcDbLine
 10
-1.0
 20
-0.1666666667
 11
0.0
 21
0.0
  0
LINE
  5
242
100
AcDbEntity
  8
0
  6
BYBLOCK
 62
0
100
AcDbLine
 10
-1.0
 20
0.0
 11
0.0
 21
0.0
  0
ENDBLK
  5
243
100
AcDbEntity
  8
0
  6
BYBLOCK
 62
0
100
AcDbBlockEnd
  0
ENDSEC
  0
SECTION
  2
ENTITIES
  0
TEXT
  5
244
100
AcDbEntity
  8
0
100
AcDbText
 62
2
  6
CONTINUOUS
 10
273.9447944556
 20
16.2331743479
  7
STANDARD
 40
1.5200002147
  1
SIZE
 41
0.95
 72
0
100
AcDbText
  0
TEXT
  5
245
100
AcDbEntity
  8
0
100
AcDbText
 62
2
  6
CONTINUOUS
 10
287.5144966041
 20
16.2331819773
  7
STANDARD
 40
1.5200002147
  1
DRAWING NO
 41
0.95
 72
0
100
AcDbText
  0
TEXT
  5
246
100
AcDbEntity
  8
0
100
AcDbText
 62
2
  6
CONTINUOUS
 10
354.2964949762
 20
16.2330905319
  7
STANDARD
 40
1.52
  1
VERSION
 41
0.95
 72
0
100
AcDbText
  0
TEXT
  5
247
100
AcDbEntity
  8
0
100
AcDbText
 62
2
  6
CONTINUOUS
 10
274.4447944556
 20
25.5657549143
  7
STANDARD
 40
1.5200002147
  1
NAME
 41
0.95
 72
0
100
AcDbText
  0
TEXT
  5
248
100
AcDbEntity
  8
0
100
AcDbText
 62
2
  6
CONTINUOUS
 10
276.2800492314
 20
10.3485471083
  7
STANDARD
 40
4.9999998868
  1
A3
 41
0.95
 72
0
100
AcDbText
  0
TEXT
  5
249
100
AcDbEntity
  8
0
100
AcDbText
 62
2
  6
CONTINUOUS
 10
297.3906714731
 20
21.1920805906
  7
TEXTSTYLE_2
 40
3.968
  1
CUSTOMER VIEW MODEL DRAWING
 41
0.8
 72
1
 11
340.2450714731
 21
21.1920805906
100
AcDbText
  0
TEXT
  5
24A
100
AcDbEntity
  8
0
100
AcDbText
 62
2
  6
CONTINUOUS
 10
347.0299084682
 20
34.4224093775
  7
TEXTSTYLE_2
 40
2.5
  1
TE Connectivity
 41
0.8
 72
0
100
AcDbText
  0
TEXT
  5
24B
100
AcDbEntity
  8
0
100
AcDbText
 62
2
  6
CONTINUOUS
 10
369.5635822821
 20
16.2739597356
  7
STANDARD
 40
1.52
  1
DATE
 41
0.95
 72
0
100
AcDbText
  0
TEXT
  5
24C
100
AcDbEntity
  8
0
100
AcDbText
 62
2
  6
CONTINUOUS
 10
174.6476862981
 20
23.8368677885
  7
TEXTSTYLE_2
 40
2.286
  1
THIS IS NOT A CONTROLLED DRAWING.
 41
0.8
 72
0
100
AcDbText
  0
TEXT
  5
24D
100
AcDbEntity
  8
0
100
AcDbText
 62
2
  6
CONTINUOUS
 10
174.6476862981
 20
20.4078677885
  7
TEXTSTYLE_2
 40
2.286
  1
THIS IS A REPRESENTATION OF THE CUSTOMER VIEW MODEL.
 41
0.8
 72
0
100
AcDbText
  0
TEXT
  5
24E
100
AcDbEntity
  8
0
100
AcDbText
 62
2
  6
CONTINUOUS
 10
174.6476862981
 20
16.9788677885
  7
TEXTSTYLE_2
 40
2.286
  1
    THIS IS NOT THE DOCUMENT OF SALE.
 41
0.8
 72
0
100
AcDbText
  0
TEXT
  5
24F
100
AcDbEntity
  8
0
100
AcDbText
 62
2
  6
CONTINUOUS
 10
174.6476862981
 20
13.5498677885
  7
TEXTSTYLE_2
 40
2.286
  1
SEE THE CUSTOMER DRAWING FOR DESIGN PURPOSES.
 41
0.8
 72
0
100
AcDbText
  0
TEXT
  5
250
100
AcDbEntity
  8
0
100
AcDbText
 62
2
  6
CONTINUOUS
 10
22.7512107444
 20
282.4829655254
  7
TEXTSTYLE_2
 40
2.5
  1
c
 41
0.8
 72
0
100
AcDbText
  0
INSERT
  5
251
100
AcDbEntity
  8
0
100
AcDbBlockReference
 62
2
  6
CONTINUOUS
  2
TE_CONNECTIVITY_BL0
 10
315.0
 20
36.0
  0
LINE
  5
252
100
AcDbEntity
  8
0
100
AcDbLine
 62
2
  6
CONTINUOUS
 10
287.2090159416
 20
18.7593422635
 11
409.2090159416
 21
18.7593422635
  0
LINE
  5
253
100
AcDbEntity
  8
0
100
AcDbLine
 62
2
  6
CONTINUOUS
 10
287.2090159416
 20
18.7593422635
 11
287.2090159416
 21
9.2342522635
  0
LINE
  5
254
100
AcDbEntity
  8
0
100
AcDbLine
 62
2
  6
CONTINUOUS
 10
287.2090159416
 20
9.2342522635
 11
409.2090159416
 21
9.2342522635
  0
LINE
  5
255
100
AcDbEntity
  8
0
100
AcDbLine
 62
2
  6
CONTINUOUS
 10
353.3340159416
 20
18.7593422635
 11
353.3340159416
 21
9.2342522635
  0
LINE
  5
256
100
AcDbEntity
  8
0
100
AcDbLine
 62
2
  6
CONTINUOUS
 10
367.9590159416
 20
18.7593422635
 11
367.9590159416
 21
9.2342522635
  0
LINE
  5
257
100
AcDbEntity
  8
0
100
AcDbLine
 62
2
  6
CONTINUOUS
 10
409.2090159416
 20
18.7593422635
 11
409.2090159416
 21
9.2342522635
  0
TEXT
  5
258
100
AcDbEntity
  8
0
100
AcDbText
 62
2
  6
CONTINUOUS
 10
303.7355159416
 20
12.4067972635
  7
TEXTSTYLE_2
 40
3.18
  1
C-2-1462039-9
 41
0.8
 72
1
 11
320.2715159416
 21
12.4067972635
100
AcDbText
  0
TEXT
  5
259
100
AcDbEntity
  8
0
100
AcDbText
 62
2
  6
CONTINUOUS
 10
358.1025159416
 20
12.4067972635
  7
TEXTSTYLE_2
 40
3.18
  1
B5
 41
0.8
 72
1
 11
360.6465159416
 21
12.4067972635
100
AcDbText
  0
TEXT
  5
25A
100
AcDbEntity
  8
0
100
AcDbText
 62
2
  6
CONTINUOUS
 10
377.1360159416
 20
12.4067972635
  7
TEXTSTYLE_2
 40
3.18
  1
24-May-22
 41
0.8
 72
1
 11
388.5840159416
 21
12.4067972635
100
AcDbText
  0
LINE
  5
25B
100
AcDbEntity
  8
0
100
AcDbLine
 62
2
  6
CONTINUOUS
 10
17.7838797455
 20
287.0843544705
 11
132.7838797455
 21
287.0843544705
  0
LINE
  5
25C
100
AcDbEntity
  8
0
100
AcDbLine
 62
2
  6
CONTINUOUS
 10
17.7838797455
 20
287.0843544705
 11
17.7838797455
 21
272.0843544705
  0
LINE
  5
25D
100
AcDbEntity
  8
0
100
AcDbLine
 62
2
  6
CONTINUOUS
 10
17.7838797455
 20
272.0843544705
 11
132.7838797455
 21
272.0843544705
  0
LINE
  5
25E
100
AcDbEntity
  8
0
100
AcDbLine
 62
2
  6
CONTINUOUS
 10
132.7838797455
 20
287.0843544705
 11
132.7838797455
 21
272.0843544705
  0
TEXT
  5
25F
100
AcDbEntity
  8
0
100
AcDbText
 62
2
  6
CONTINUOUS
 10
17.8463797455
 20
282.0843544705
  7
TEXTSTYLE_2
 40
2.5
  1
  
 41
0.8
 72
0
100
AcDbText
  0
TEXT
  5
260
100
AcDbEntity
  8
0
100
AcDbText
 62
2
  6
CONTINUOUS
 10
21.8463797455
 20
282.0843544705
  7
TEXTSTYLE_1
 40
2.5
  1
e
 41
1.0
 72
0
100
AcDbText
  0
TEXT
  5
261
100
AcDbEntity
  8
0
100
AcDbText
 62
2
  6
CONTINUOUS
 10
26.4297130788
 20
282.0843544705
  7
TEXTSTYLE_2
 40
2.5
  1
Copyright 
 41
0.8
 72
0
100
AcDbText
  0
TEXT
  5
262
100
AcDbEntity
  8
0
100
AcDbText
 62
2
  6
CONTINUOUS
 10
46.4297130788
 20
282.0843544705
  7
TEXTSTYLE_2
 40
2.5
  1
24-May-22
 41
0.8
 72
0
100
AcDbText
  0
TEXT
  5
263
100
AcDbEntity
  8
0
100
AcDbText
 62
2
  6
CONTINUOUS
 10
64.4297130788
 20
282.0843544705
  7
TEXTSTYLE_2
 40
2.5
  1
 Tyco Electronics Corporation,
 41
0.8
 72
0
100
AcDbText
  0
TEXT
  5
264
100
AcDbEntity
  8
0
100
AcDbText
 62
2
  6
CONTINUOUS
 10
17.8463797455
 20
278.3343544705
  7
TEXTSTYLE_2
 40
2.5
  1
 
 41
0.8
 72
0
100
AcDbText
  0
TEXT
  5
265
100
AcDbEntity
  8
0
100
AcDbText
 62
2
  6
CONTINUOUS
 10
17.8463797455
 20
274.5843544705
  7
TEXTSTYLE_2
 40
2.5
  1
  a TE Connectivity Ltd. Company.  All Rights Reserved.
 41
0.8
 72
0
100
AcDbText
  0
LINE
  5
266
100
AcDbEntity
  8
0
100
AcDbLine
 62
7
  6
CONTINUOUS
 10
0.0
 20
0.0
 11
0.0
 21
297.0
  0
LINE
  5
267
100
AcDbEntity
  8
0
100
AcDbLine
 62
7
  6
CONTINUOUS
 10
17.7838797455
 20
9.2342568143
 11
17.7838797455
 21
287.0843544705
  0
LINE
  5
268
100
AcDbEntity
  8
0
100
AcDbLine
 62
7
  6
CONTINUOUS
 10
0.0
 20
0.0
 11
420.0
 21
0.0
  0
LINE
  5
269
100
AcDbEntity
  8
0
100
AcDbLine
 62
7
  6
CONTINUOUS
 10
409.2090201263
 20
9.2342568143
 11
17.7838797455
 21
9.2342568143
  0
LINE
  5
26A
100
AcDbEntity
  8
0
100
AcDbLine
 62
7
  6
CONTINUOUS
 10
30.4841666107
 20
9.234348367
 11
17.784490097
 21
9.234348367
  0
LINE
  5
26B
100
AcDbEntity
  8
0
100
AcDbLine
 62
7
  6
CONTINUOUS
 10
409.2090159416
 20
18.7593422635
 11
273.4388174896
 21
18.7593422635
  0
LINE
  5
26C
100
AcDbEntity
  8
DRAFT_ENTITY
100
AcDbLine
 62
7
  6
CONTINUOUS
 10
409.2091421966
 20
28.2845192655
 11
273.4386343841
 21
28.2845192655
  0
LINE
  5
26D
100
AcDbEntity
  8
0
100
AcDbLine
 62
7
  6
CONTINUOUS
 10
409.2091421966
 20
44.1593056424
 11
273.4386343841
 21
44.1593056424
  0
LINE
  5
26E
100
AcDbEntity
  8
0
100
AcDbLine
 62
7
  6
CONTINUOUS
 10
273.4386343841
 20
44.1593056424
 11
273.4386343841
 21
9.2342568143
  0
LINE
  5
26F
100
AcDbEntity
  8
0
100
AcDbLine
 62
7
  6
CONTINUOUS
 10
287.2079097655
 20
18.7593422635
 11
287.2079097655
 21
9.2342568143
  0
LINE
  5
270
100
AcDbEntity
  8
0
100
AcDbLine
 62
7
  6
CONTINUOUS
 10
353.3344447689
 20
18.7593808926
 11
353.3344447689
 21
9.2342954434
  0
LINE
  5
271
100
AcDbEntity
  8
0
100
AcDbLine
 62
7
  6
CONTINUOUS
 10
17.7838797455
 20
287.0843544705
 11
409.208898056
 21
287.0843544705
  0
LINE
  5
272
100
AcDbEntity
  8
0
100
AcDbLine
 62
7
  6
CONTINUOUS
 10
0.0
 20
297.0
 11
420.0
 21
297.0
  0
LINE
  5
273
100
AcDbEntity
  8
0
100
AcDbLine
 62
7
  6
CONTINUOUS
 10
367.9586057154
 20
9.2337890544
 11
367.9586057154
 21
18.7587829509
  0
LINE
  5
274
100
AcDbEntity
  8
0
100
AcDbLine
 62
7
  6
CONTINUOUS
 10
409.208898056
 20
287.0843544705
 11
409.2090201263
 21
9.2342568143
  0
LINE
  5
275
100
AcDbEntity
  8
0
100
AcDbLine
 62
7
  6
CONTINUOUS
 10
420.0
 20
0.0
 11
420.0
 21
297.0
  0
LINE
  5
276
100
AcDbEntity
  8
0
100
AcDbLine
 62
7
  6
CONTINUOUS
 10
258.1749440148
 20
222.8810130639
 11
264.4928694185
 21
243.3258461516
  0
LINE
  5
277
100
AcDbEntity
  8
0
100
AcDbLine
 62
7
  6
CONTINUOUS
 10
260.6104944029
 20
222.2617596556
 11
260.4073016568
 21
221.5284522886
  0
LINE
  5
278
100
AcDbEntity
  8
0
100
AcDbLine
 62
7
  6
CONTINUOUS
 10
259.345626651
 20
223.4684660479
 11
265.6635520547
 21
243.9132991357
  0
LINE
  5
279
100
AcDbEntity
  8
0
100
AcDbLine
 62
7
  6
CONTINUOUS
 10
259.7289106226
 20
222.3495682628
 11
259.7565672966
 21
222.4390653757
  0
LINE
  5
27A
100
AcDbEntity
  8
0
100
AcDbLine
 62
7
  6
CONTINUOUS
 10
262.8210410144
 20
222.2617596556
 11
262.6178482684
 21
221.5284522886
  0
LINE
  5
27B
100
AcDbEntity
  8
0
100
AcDbLine
 62
7
  6
CONTINUOUS
 10
263.8275627204
 20
222.4614580413
 11
263.4248879114
 21
221.1584006716
  0
LINE
  5
27C
100
AcDbEntity
  8
0
100
AcDbLine
 62
7
  6
CONTINUOUS
 10
258.2367916598
 20
222.3495682628
 11
268.1201410747
 21
202.2094081306
  0
LINE
  5
27D
100
AcDbEntity
  8
0
100
AcDbLine
 62
7
  6
CONTINUOUS
 10
259.7289106226
 20
222.3495682628
 11
269.6122600375
 21
202.2094081306
  0
LINE
  5
27E
100
AcDbEntity
  8
0
100
AcDbLine
 62
7
  6
CONTINUOUS
 10
266.0381093319
 20
222.4614580413
 11
264.8376918568
 21
218.5769020603
  0
LINE
  5
27F
100
AcDbEntity
  8
0
100
AcDbLine
 62
7
  6
CONTINUOUS
 10
264.9054883977
 20
217.3484386101
 11
266.4855294387
 21
222.4614580413
  0
LINE
  5
280
100
AcDbEntity
  8
0
100
AcDbLine
 62
7
  6
CONTINUOUS
 10
260.4073016568
 20
221.5284522886
 11
262.6949417861
 21
217.3484386101
  0
LINE
  5
281
100
AcDbEntity
  8
0
100
AcDbLine
 62
7
  6
CONTINUOUS
 10
262.6178482684
 20
221.5284522886
 11
264.9054883977
 21
217.3484386101
  0
LINE
  5
282
100
AcDbEntity
  8
0
100
AcDbLine
 62
7
  6
CONTINUOUS
 10
269.9027393664
 20
203.1494004565
 11
262.9348674872
 21
217.3484386101
  0
LINE
  5
283
100
AcDbEntity
  8
0
100
AcDbLine
 62
7
  6
CONTINUOUS
 10
260.5791940658
 20
222.1487990886
 11
260.4257634249
 21
222.4614580413
  0
LINE
  5
284
100
AcDbEntity
  8
0
100
AcDbLine
 62
7
  6
CONTINUOUS
 10
270.5891922083
 20
204.6785607628
 11
264.3717227847
 21
217.3484386101
  0
LINE
  5
285
100
AcDbEntity
  8
0
100
AcDbLine
 62
7
  6
CONTINUOUS
 10
271.3811066342
 20
204.960160402
 11
265.0586328617
 21
217.8440147377
  0
LINE
  5
286
100
AcDbEntity
  8
0
100
AcDbLine
 62
7
  6
CONTINUOUS
 10
271.9926112357
 20
198.4017694487
 11
274.0975708463
 21
193.6306008462
  0
LINE
  5
287
100
AcDbEntity
  8
0
100
AcDbLine
 62
7
  6
CONTINUOUS
 10
274.2031578472
 20
198.4017694487
 11
276.3081174579
 21
193.6306008462
  0
LINE
  5
288
100
AcDbEntity
  8
0
100
AcDbLine
 62
7
  6
CONTINUOUS
 10
274.0975708463
 20
193.6306008462
 11
276.3081174579
 21
193.6306008462
  0
LINE
  5
289
100
AcDbEntity
  8
0
100
AcDbLine
 62
7
  6
CONTINUOUS
 10
291.7819437387
 20
193.6306008462
 11
293.9924903503
 21
193.6306008462
  0
LINE
  5
28A
100
AcDbEntity
  8
0
100
AcDbLine
 62
7
  6
CONTINUOUS
 10
303.9399501022
 20
193.6306008462
 11
306.1504967137
 21
193.6306008462
  0
LINE
  5
28B
100
AcDbEntity
  8
0
100
AcDbLine
 62
7
  6
CONTINUOUS
 10
316.0979564657
 20
193.6306008462
 11
318.3085030772
 21
193.6306008462
  0
LINE
  5
28C
100
AcDbEntity
  8
0
100
AcDbLine
 62
7
  6
CONTINUOUS
 10
264.8376918568
 20
218.5769020604
 11
262.8210410144
 21
222.2617596556
  0
LINE
  5
28D
100
AcDbEntity
  8
0
100
AcDbLine
 62
7
  6
CONTINUOUS
 10
276.5400465674
 20
194.3053496277
 11
274.6844362739
 21
198.5113351138
  0
LINE
  5
28E
100
AcDbEntity
  8
0
100
AcDbLine
 62
7
  6
CONTINUOUS
 10
271.9926112357
 20
198.4017694487
 11
274.2031578472
 21
198.4017694487
  0
LINE
  5
28F
100
AcDbEntity
  8
0
100
AcDbLine
 62
7
  6
CONTINUOUS
 10
289.6769841281
 20
198.4017694487
 11
291.8875307396
 21
198.4017694487
  0
LINE
  5
290
100
AcDbEntity
  8
0
100
AcDbLine
 62
7
  6
CONTINUOUS
 10
301.8349904916
 20
198.4017694487
 11
304.0455371031
 21
198.4017694487
  0
LINE
  5
291
100
AcDbEntity
  8
0
100
AcDbLine
 62
7
  6
CONTINUOUS
 10
313.9929968551
 20
198.4017694487
 11
316.2035434666
 21
198.4017694487
  0
LINE
  5
292
100
AcDbEntity
  8
0
100
AcDbLine
 62
7
  6
CONTINUOUS
 10
276.1292310451
 20
203.1866970493
 11
275.8546935614
 21
203.7461459419
  0
LINE
  5
293
100
AcDbEntity
  8
0
100
AcDbLine
 62
7
  6
CONTINUOUS
 10
273.0674845082
 20
211.1584753288
 11
275.4268659865
 21
206.3505586206
  0
LINE
  5
294
100
AcDbEntity
  8
0
100
AcDbLine
 62
7
  6
CONTINUOUS
 10
271.1593614814
 20
221.7604002824
 11
271.4341917467
 21
219.9748129218
  0
LINE
  5
295
100
AcDbEntity
  8
0
100
AcDbLine
 62
7
  6
CONTINUOUS
 10
273.0674845082
 20
211.1584753288
 11
272.4174710228
 21
215.3816487207
  0
LINE
  5
296
100
AcDbEntity
  8
0
100
AcDbLine
 62
7
  6
CONTINUOUS
 10
272.9713088741
 20
218.0680375914
 11
272.738925411
 21
217.3160437308
  0
LINE
  5
297
100
AcDbEntity
  8
0
100
AcDbLine
 62
7
  6
CONTINUOUS
 10
272.4174710228
 20
215.3816487207
 11
273.0152437374
 21
217.3160437308
  0
LINE
  5
298
100
AcDbEntity
  8
0
100
AcDbLine
 62
7
  6
CONTINUOUS
 10
269.6122600375
 20
202.2094081306
 11
269.9027393664
 21
203.1494004565
  0
LINE
  5
299
100
AcDbEntity
  8
0
100
AcDbLine
 62
7
  6
CONTINUOUS
 10
269.8329585301
 20
202.0975183521
 11
270.123437859
 21
203.037510678
  0
LINE
  5
29A
100
AcDbEntity
  8
0
100
AcDbLine
 62
7
  6
CONTINUOUS
 10
270.3271260009
 20
201.0905103455
 11
272.8234942438
 21
201.0905103455
  0
LINE
  5
29B
100
AcDbEntity
  8
0
100
AcDbLine
 62
7
  6
CONTINUOUS
 10
275.4814609621
 20
201.0905103455
 11
290.5078671362
 21
201.0905103455
  0
LINE
  5
29C
100
AcDbEntity
  8
0
100
AcDbLine
 62
7
  6
CONTINUOUS
 10
293.1658338544
 20
201.0905103455
 11
302.6658734997
 21
201.0905103455
  0
LINE
  5
29D
100
AcDbEntity
  8
0
100
AcDbLine
 62
7
  6
CONTINUOUS
 10
305.3238402179
 20
201.0905103455
 11
314.8238798632
 21
201.0905103455
  0
LINE
  5
29E
100
AcDbEntity
  8
0
100
AcDbLine
 62
7
  6
CONTINUOUS
 10
317.4818465814
 20
201.0905103455
 11
322.2749713722
 21
201.0905103455
  0
LINE
  5
29F
100
AcDbEntity
  8
0
100
AcDbLine
 62
7
  6
CONTINUOUS
 10
279.5419059851
 20
204.6785607628
 11
278.8023087935
 21
204.960160402
  0
LINE
  5
2A0
100
AcDbEntity
  8
0
100
AcDbLine
 62
7
  6
CONTINUOUS
 10
275.4268659865
 20
206.3505586206
 11
277.1761207411
 21
205.6845345829
  0
LINE
  5
2A1
100
AcDbEntity
  8
0
100
AcDbLine
 62
7
  6
CONTINUOUS
 10
271.4341917467
 20
219.9748129218
 11
272.738925411
 21
217.3160437308
  0
LINE
  5
2A2
100
AcDbEntity
  8
0
100
AcDbLine
 62
7
  6
CONTINUOUS
 10
278.4468377799
 20
205.6845345829
 11
278.8023087935
 21
204.960160402
  0
LINE
  5
2A3
100
AcDbEntity
  8
0
100
AcDbLine
 62
7
  6
CONTINUOUS
 10
271.1593614814
 20
221.7604002824
 11
272.9713088741
 21
218.0680375914
  0
LINE
  5
2A4
100
AcDbEntity
  8
0
100
AcDbLine
 62
7
  6
CONTINUOUS
 10
279.0482460191
 20
205.6845345829
 11
279.5419059851
 21
204.6785607628
  0
LINE
  5
2A5
100
AcDbEntity
  8
0
100
AcDbLine
 62
7
  6
CONTINUOUS
 10
278.2948672953
 20
222.2617596556
 11
278.0916745492
 21
221.5284522886
  0
LINE
  5
2A6
100
AcDbEntity
  8
0
100
AcDbLine
 62
7
  6
CONTINUOUS
 10
273.6441469498
 20
203.7461459419
 11
271.9926112357
 21
198.4017694487
  0
LINE
  5
2A7
100
AcDbEntity
  8
0
100
AcDbLine
 62
7
  6
CONTINUOUS
 10
269.8329585301
 20
202.0975183521
 11
273.1346829651
 21
202.0975183521
  0
LINE
  5
2A8
100
AcDbEntity
  8
0
100
AcDbLine
 62
7
  6
CONTINUOUS
 10
275.7926496834
 20
202.0975183521
 11
290.8190558575
 21
202.0975183521
  0
LINE
  5
2A9
100
AcDbEntity
  8
0
100
AcDbLine
 62
7
  6
CONTINUOUS
 10
293.4770225758
 20
202.0975183521
 11
302.977062221
 21
202.0975183521
  0
LINE
  5
2AA
100
AcDbEntity
  8
0
100
AcDbLine
 62
7
  6
CONTINUOUS
 10
305.6350289393
 20
202.0975183521
 11
315.1350685845
 21
202.0975183521
  0
LINE
  5
2AB
100
AcDbEntity
  8
0
100
AcDbLine
 62
7
  6
CONTINUOUS
 10
317.7930353028
 20
202.0975183521
 11
321.7808039014
 21
202.0975183521
  0
LINE
  5
2AC
100
AcDbEntity
  8
0
100
AcDbLine
 62
7
  6
CONTINUOUS
 10
321.4853139272
 20
203.037510678
 11
318.0835146317
 21
203.037510678
  0
LINE
  5
2AD
100
AcDbEntity
  8
0
100
AcDbLine
 62
7
  6
CONTINUOUS
 10
315.4255479134
 20
203.037510678
 11
305.9255082682
 21
203.037510678
  0
LINE
  5
2AE
100
AcDbEntity
  8
0
100
AcDbLine
 62
7
  6
CONTINUOUS
 10
303.2675415499
 20
203.037510678
 11
293.7675019047
 21
203.037510678
  0
LINE
  5
2AF
100
AcDbEntity
  8
0
100
AcDbLine
 62
7
  6
CONTINUOUS
 10
291.1095351864
 20
203.037510678
 11
276.0831290123
 21
203.037510678
  0
LINE
  5
2B0
100
AcDbEntity
  8
0
100
AcDbLine
 62
7
  6
CONTINUOUS
 10
273.4251622941
 20
203.037510678
 11
270.123437859
 21
203.037510678
  0
LINE
  5
2B1
100
AcDbEntity
  8
0
100
AcDbLine
 62
7
  6
CONTINUOUS
 10
273.6441469498
 20
203.7461459419
 11
275.8546935614
 21
203.7461459419
  0
LINE
  5
2B2
100
AcDbEntity
  8
0
100
AcDbLine
 62
7
  6
CONTINUOUS
 10
291.3285198422
 20
203.7461459419
 11
293.5390664537
 21
203.7461459419
  0
LINE
  5
2B3
100
AcDbEntity
  8
0
100
AcDbLine
 62
7
  6
CONTINUOUS
 10
303.4865262057
 20
203.7461459419
 11
305.6970728172
 21
203.7461459419
  0
LINE
  5
2B4
100
AcDbEntity
  8
0
100
AcDbLine
 62
7
  6
CONTINUOUS
 10
315.6445325692
 20
203.7461459419
 11
317.8550791807
 21
203.7461459419
  0
LINE
  5
2B5
100
AcDbEntity
  8
0
100
AcDbLine
 62
7
  6
CONTINUOUS
 10
270.5891922083
 20
204.6785607628
 11
279.5419059851
 21
204.6785607628
  0
LINE
  5
2B6
100
AcDbEntity
  8
0
100
AcDbLine
 62
7
  6
CONTINUOUS
 10
285.068272514
 20
204.6785607628
 11
305.5158286708
 21
204.6785607628
  0
LINE
  5
2B7
100
AcDbEntity
  8
0
100
AcDbLine
 62
7
  6
CONTINUOUS
 10
311.0421951996
 20
204.6785607628
 11
319.9949089764
 21
204.6785607628
  0
LINE
  5
2B8
100
AcDbEntity
  8
0
100
AcDbLine
 62
7
  6
CONTINUOUS
 10
285.068272514
 20
204.6785607628
 11
282.4261689435
 21
205.6845345829
  0
LINE
  5
2B9
100
AcDbEntity
  8
0
100
AcDbLine
 62
7
  6
CONTINUOUS
 10
276.6857280102
 20
221.7604002824
 11
277.6675192252
 21
215.3816487207
  0
LINE
  5
2BA
100
AcDbEntity
  8
0
100
AcDbLine
 62
7
  6
CONTINUOUS
 10
280.5054139068
 20
222.2617596556
 11
280.3022211607
 21
221.5284522886
  0
LINE
  5
2BB
100
AcDbEntity
  8
0
100
AcDbLine
 62
7
  6
CONTINUOUS
 10
281.5119356127
 20
222.4614580413
 11
281.1092608037
 21
221.1584006716
  0
LINE
  5
2BC
100
AcDbEntity
  8
0
100
AcDbLine
 62
7
  6
CONTINUOUS
 10
275.8546935614
 20
203.7461459419
 11
274.2031578472
 21
198.4017694487
  0
LINE
  5
2BD
100
AcDbEntity
  8
0
100
AcDbLine
 62
7
  6
CONTINUOUS
 10
274.6844362739
 20
198.5113351138
 11
276.1292310451
 21
203.1866970493
  0
LINE
  5
2BE
100
AcDbEntity
  8
0
100
AcDbLine
 62
7
  6
CONTINUOUS
 10
271.3811066342
 20
204.960160402
 11
278.8023087935
 21
204.960160402
  0
LINE
  5
2BF
100
AcDbEntity
  8
0
100
AcDbLine
 62
7
  6
CONTINUOUS
 10
310.302598008
 20
204.960160402
 11
317.7238001673
 21
204.960160402
  0
LINE
  5
2C0
100
AcDbEntity
  8
0
100
AcDbLine
 62
7
  6
CONTINUOUS
 10
308.1237733027
 20
205.6845345829
 11
302.8737251003
 21
205.6845345829
  0
LINE
  5
2C1
100
AcDbEntity
  8
0
100
AcDbLine
 62
7
  6
CONTINUOUS
 10
282.4261689435
 20
205.6845345829
 11
277.1761207411
 21
205.6845345829
  0
LINE
  5
2C2
100
AcDbEntity
  8
0
100
AcDbLine
 62
7
  6
CONTINUOUS
 10
275.4268659865
 20
206.3505586206
 11
306.3745185481
 21
206.3505586206
  0
LINE
  5
2C3
100
AcDbEntity
  8
0
100
AcDbLine
 62
7
  6
CONTINUOUS
 10
308.9978643438
 20
207.618929593
 11
308.7215460173
 21
207.618929593
  0
LINE
  5
2C4
100
AcDbEntity
  8
0
100
AcDbLine
 62
7
  6
CONTINUOUS
 10
278.0916745492
 20
221.5284522886
 11
280.3793146785
 21
217.3484386101
  0
LINE
  5
2C5
100
AcDbEntity
  8
0
100
AcDbLine
 62
7
  6
CONTINUOUS
 10
289.6769841281
 20
198.4017694487
 11
291.7819437387
 21
193.6306008462
  0
LINE
  5
2C6
100
AcDbEntity
  8
0
100
AcDbLine
 62
7
  6
CONTINUOUS
 10
283.7224822243
 20
222.4614580413
 11
282.5220647492
 21
218.5769020603
  0
LINE
  5
2C7
100
AcDbEntity
  8
0
100
AcDbLine
 62
7
  6
CONTINUOUS
 10
282.58986129
 20
217.3484386101
 11
284.169902331
 21
222.4614580413
  0
LINE
  5
2C8
100
AcDbEntity
  8
0
100
AcDbLine
 62
7
  6
CONTINUOUS
 10
276.3081174579
 20
193.6306008462
 11
276.5400465674
 21
194.3053496277
  0
LINE
  5
2C9
100
AcDbEntity
  8
0
100
AcDbLine
 62
7
  6
CONTINUOUS
 10
319.9949089764
 20
204.6785607628
 11
317.7238001673
 21
204.960160402
  0
LINE
  5
2CA
100
AcDbEntity
  8
0
100
AcDbLine
 62
7
  6
CONTINUOUS
 10
305.5158286708
 20
204.6785607628
 11
302.8737251003
 21
205.6845345829
  0
LINE
  5
2CB
100
AcDbEntity
  8
0
100
AcDbLine
 62
7
  6
CONTINUOUS
 10
280.3022211607
 20
221.5284522886
 11
282.58986129
 21
217.3484386101
  0
LINE
  5
2CC
100
AcDbEntity
  8
0
100
AcDbLine
 62
7
  6
CONTINUOUS
 10
282.5220647492
 20
218.5769020604
 11
280.5054139068
 21
222.2617596556
  0
LINE
  5
2CD
100
AcDbEntity
  8
0
100
AcDbLine
 62
7
  6
CONTINUOUS
 10
291.8875307396
 20
198.4017694487
 11
293.9924903503
 21
193.6306008462
  0
LINE
  5
2CE
100
AcDbEntity
  8
0
100
AcDbLine
 62
7
  6
CONTINUOUS
 10
294.2244194598
 20
194.3053496277
 11
292.3688091662
 21
198.5113351138
  0
LINE
  5
2CF
100
AcDbEntity
  8
0
100
AcDbLine
 62
7
  6
CONTINUOUS
 10
273.0674845082
 20
211.1584753288
 11
304.0151370698
 21
211.1584753288
  0
LINE
  5
2D0
100
AcDbEntity
  8
0
100
AcDbLine
 62
7
  6
CONTINUOUS
 10
306.3745185481
 20
206.3505586206
 11
308.1237733027
 21
205.6845345829
  0
LINE
  5
2D1
100
AcDbEntity
  8
0
100
AcDbLine
 62
7
  6
CONTINUOUS
 10
311.0421951996
 20
204.6785607628
 11
310.302598008
 21
204.960160402
  0
LINE
  5
2D2
100
AcDbEntity
  8
0
100
AcDbLine
 62
7
  6
CONTINUOUS
 10
293.8136039375
 20
203.1866970493
 11
293.5390664537
 21
203.7461459419
  0
LINE
  5
2D3
100
AcDbEntity
  8
0
100
AcDbLine
 62
7
  6
CONTINUOUS
 10
290.4528736588
 20
222.2617596556
 11
290.2496809127
 21
221.5284522886
  0
LINE
  5
2D4
100
AcDbEntity
  8
0
100
AcDbLine
 62
7
  6
CONTINUOUS
 10
272.4174710228
 20
215.3816487207
 11
277.6675192252
 21
215.3816487207
  0
LINE
  5
2D5
100
AcDbEntity
  8
0
100
AcDbLine
 62
7
  6
CONTINUOUS
 10
298.115075382
 20
215.3816487207
 11
303.3651235844
 21
215.3816487207
  0
LINE
  5
2D6
100
AcDbEntity
  8
0
100
AcDbLine
 62
7
  6
CONTINUOUS
 10
292.6634202703
 20
222.2617596556
 11
292.4602275242
 21
221.5284522886
  0
LINE
  5
2D7
100
AcDbEntity
  8
0
100
AcDbLine
 62
7
  6
CONTINUOUS
 10
293.6699419762
 20
222.4614580413
 11
293.2672671672
 21
221.1584006716
  0
LINE
  5
2D8
100
AcDbEntity
  8
0
100
AcDbLine
 62
7
  6
CONTINUOUS
 10
272.738925411
 20
217.3160437308
 11
273.0152437374
 21
217.3160437308
  0
LINE
  5
2D9
100
AcDbEntity
  8
0
100
AcDbLine
 62
7
  6
CONTINUOUS
 10
303.962896299
 20
217.3160437308
 11
304.2392146255
 21
217.3160437308
  0
LINE
  5
2DA
100
AcDbEntity
  8
0
100
AcDbLine
 62
7
  6
CONTINUOUS
 10
262.6949417861
 20
217.3484386101
 11
264.9054883977
 21
217.3484386101
  0
LINE
  5
2DB
100
AcDbEntity
  8
0
100
AcDbLine
 62
7
  6
CONTINUOUS
 10
280.3793146785
 20
217.3484386101
 11
282.58986129
 21
217.3484386101
  0
LINE
  5
2DC
100
AcDbEntity
  8
0
100
AcDbLine
 62
7
  6
CONTINUOUS
 10
292.537321042
 20
217.3484386101
 11
294.7478676535
 21
217.3484386101
  0
LINE
  5
2DD
100
AcDbEntity
  8
0
100
AcDbLine
 62
7
  6
CONTINUOUS
 10
304.6953274055
 20
217.3484386101
 11
306.905874017
 21
217.3484386101
  0
LINE
  5
2DE
100
AcDbEntity
  8
0
100
AcDbLine
 62
7
  6
CONTINUOUS
 10
272.9713088741
 20
218.0680375914
 11
277.2540412949
 21
218.0680375914
  0
LINE
  5
2DF
100
AcDbEntity
  8
0
100
AcDbLine
 62
7
  6
CONTINUOUS
 10
298.9452315597
 20
218.0680375914
 11
303.8701898494
 21
218.0680375914
  0
LINE
  5
2E0
100
AcDbEntity
  8
0
100
AcDbLine
 62
7
  6
CONTINUOUS
 10
290.2496809127
 20
221.5284522886
 11
292.537321042
 21
217.3484386101
  0
LINE
  5
2E1
100
AcDbEntity
  8
0
100
AcDbLine
 62
7
  6
CONTINUOUS
 10
292.4602275242
 20
221.5284522886
 11
294.7478676535
 21
217.3484386101
  0
LINE
  5
2E2
100
AcDbEntity
  8
0
100
AcDbLine
 62
7
  6
CONTINUOUS
 10
294.6800711127
 20
218.5769020604
 11
292.6634202703
 21
222.2617596556
  0
LINE
  5
2E3
100
AcDbEntity
  8
0
100
AcDbLine
 62
7
  6
CONTINUOUS
 10
301.8349904916
 20
198.4017694487
 11
303.9399501022
 21
193.6306008462
  0
LINE
  5
2E4
100
AcDbEntity
  8
0
100
AcDbLine
 62
7
  6
CONTINUOUS
 10
295.8804885878
 20
222.4614580413
 11
294.6800711127
 21
218.5769020603
  0
LINE
  5
2E5
100
AcDbEntity
  8
0
100
AcDbLine
 62
7
  6
CONTINUOUS
 10
294.7478676535
 20
217.3484386101
 11
296.3279086945
 21
222.4614580413
  0
LINE
  5
2E6
100
AcDbEntity
  8
0
100
AcDbLine
 62
7
  6
CONTINUOUS
 10
291.3285198422
 20
203.7461459419
 11
289.6769841281
 21
198.4017694487
  0
LINE
  5
2E7
100
AcDbEntity
  8
0
100
AcDbLine
 62
7
  6
CONTINUOUS
 10
265.7170986912
 20
219.9748129218
 11
271.4341917467
 21
219.9748129218
  0
LINE
  5
2E8
100
AcDbEntity
  8
0
100
AcDbLine
 62
7
  6
CONTINUOUS
 10
302.9344809612
 20
219.9748129218
 11
303.2579638627
 21
219.9748129218
  0
LINE
  5
2E9
100
AcDbEntity
  8
0
100
AcDbLine
 62
7
  6
CONTINUOUS
 10
307.7174843106
 20
219.9748129218
 11
310.3556831205
 21
219.9748129218
  0
LINE
  5
2EA
100
AcDbEntity
  8
0
100
AcDbLine
 62
7
  6
CONTINUOUS
 10
260.4073016568
 20
221.5284522886
 11
262.6178482684
 21
221.5284522886
  0
LINE
  5
2EB
100
AcDbEntity
  8
0
100
AcDbLine
 62
7
  6
CONTINUOUS
 10
278.0916745492
 20
221.5284522886
 11
280.3022211607
 21
221.5284522886
  0
LINE
  5
2EC
100
AcDbEntity
  8
0
100
AcDbLine
 62
7
  6
CONTINUOUS
 10
290.2496809127
 20
221.5284522886
 11
292.4602275242
 21
221.5284522886
  0
LINE
  5
2ED
100
AcDbEntity
  8
0
100
AcDbLine
 62
7
  6
CONTINUOUS
 10
302.4076872762
 20
221.5284522886
 11
304.6182338877
 21
221.5284522886
  0
LINE
  5
2EE
100
AcDbEntity
  8
0
100
AcDbLine
 62
7
  6
CONTINUOUS
 10
263.0954252413
 20
221.7604002824
 11
263.6109196886
 21
221.7604002824
  0
LINE
  5
2EF
100
AcDbEntity
  8
0
100
AcDbLine
 62
7
  6
CONTINUOUS
 10
266.2688864068
 20
221.7604002824
 11
271.1593614814
 21
221.7604002824
  0
LINE
  5
2F0
100
AcDbEntity
  8
0
100
AcDbLine
 62
7
  6
CONTINUOUS
 10
276.6857280102
 20
221.7604002824
 11
278.155945211
 21
221.7604002824
  0
LINE
  5
2F1
100
AcDbEntity
  8
0
100
AcDbLine
 62
7
  6
CONTINUOUS
 10
280.7797981337
 20
221.7604002824
 11
281.2952925809
 21
221.7604002824
  0
LINE
  5
2F2
100
AcDbEntity
  8
0
100
AcDbLine
 62
7
  6
CONTINUOUS
 10
283.9532592992
 20
221.7604002824
 11
290.3139515745
 21
221.7604002824
  0
LINE
  5
2F3
100
AcDbEntity
  8
0
100
AcDbLine
 62
7
  6
CONTINUOUS
 10
292.9378044972
 20
221.7604002824
 11
293.4532989444
 21
221.7604002824
  0
LINE
  5
2F4
100
AcDbEntity
  8
0
100
AcDbLine
 62
7
  6
CONTINUOUS
 10
296.1112656627
 20
221.7604002824
 11
297.133284167
 21
221.7604002824
  0
LINE
  5
2F5
100
AcDbEntity
  8
0
100
AcDbLine
 62
7
  6
CONTINUOUS
 10
305.0958108607
 20
221.7604002824
 11
305.6113053079
 21
221.7604002824
  0
LINE
  5
2F6
100
AcDbEntity
  8
0
100
AcDbLine
 62
7
  6
CONTINUOUS
 10
308.2692720262
 20
221.7604002824
 11
311.6123644726
 21
221.7604002824
  0
LINE
  5
2F7
100
AcDbEntity
  8
0
100
AcDbLine
 62
7
  6
CONTINUOUS
 10
260.6104944029
 20
222.2617596556
 11
262.8210410144
 21
222.2617596556
  0
LINE
  5
2F8
100
AcDbEntity
  8
0
100
AcDbLine
 62
7
  6
CONTINUOUS
 10
278.2948672953
 20
222.2617596556
 11
280.5054139068
 21
222.2617596556
  0
LINE
  5
2F9
100
AcDbEntity
  8
0
100
AcDbLine
 62
7
  6
CONTINUOUS
 10
290.4528736588
 20
222.2617596556
 11
292.6634202703
 21
222.2617596556
  0
LINE
  5
2FA
100
AcDbEntity
  8
0
100
AcDbLine
 62
7
  6
CONTINUOUS
 10
302.6108800223
 20
222.2617596556
 11
304.8214266338
 21
222.2617596556
  0
LINE
  5
2FB
100
AcDbEntity
  8
0
100
AcDbLine
 62
7
  6
CONTINUOUS
 10
304.0455371031
 20
198.4017694487
 11
306.1504967137
 21
193.6306008462
  0
LINE
  5
2FC
100
AcDbEntity
  8
0
100
AcDbLine
 62
7
  6
CONTINUOUS
 10
306.3824258233
 20
194.3053496277
 11
304.5268155297
 21
198.5113351138
  0
LINE
  5
2FD
100
AcDbEntity
  8
0
100
AcDbLine
 62
7
  6
CONTINUOUS
 10
293.5390664537
 20
203.7461459419
 11
291.8875307396
 21
198.4017694487
  0
LINE
  5
2FE
100
AcDbEntity
  8
0
100
AcDbLine
 62
7
  6
CONTINUOUS
 10
292.3688091662
 20
198.5113351138
 11
293.8136039375
 21
203.1866970493
  0
LINE
  5
2FF
100
AcDbEntity
  8
0
100
AcDbLine
 62
7
  6
CONTINUOUS
 10
298.9452315597
 20
218.0680375914
 11
298.115075382
 21
215.3816487207
  0
LINE
  5
300
100
AcDbEntity
  8
0
100
AcDbLine
 62
7
  6
CONTINUOUS
 10
271.3811066342
 20
204.960160402
 11
270.5891922083
 21
204.6785607628
  0
LINE
  5
301
100
AcDbEntity
  8
0
100
AcDbLine
 62
7
  6
CONTINUOUS
 10
311.787639493
 20
222.4614580413
 11
259.8397941217
 21
222.4614580413
  0
LINE
  5
302
100
AcDbEntity
  8
0
100
AcDbLine
 62
7
  6
CONTINUOUS
 10
311.2934720223
 20
223.4684660479
 11
259.345626651
 21
223.4684660479
  0
LINE
  5
303
100
AcDbEntity
  8
0
100
AcDbLine
 62
7
  6
CONTINUOUS
 10
305.971610301
 20
203.1866970493
 11
305.6970728172
 21
203.7461459419
  0
LINE
  5
304
100
AcDbEntity
  8
0
100
AcDbLine
 62
7
  6
CONTINUOUS
 10
297.133284167
 20
221.7604002824
 11
298.9452315597
 21
218.0680375914
  0
LINE
  5
305
100
AcDbEntity
  8
0
100
AcDbLine
 62
7
  6
CONTINUOUS
 10
305.0221687047
 20
205.6845345829
 11
305.5158286708
 21
204.6785607628
  0
LINE
  5
306
100
AcDbEntity
  8
0
100
AcDbLine
 62
7
  6
CONTINUOUS
 10
304.0151370698
 20
211.1584753288
 11
306.3745185481
 21
206.3505586206
  0
LINE
  5
307
100
AcDbEntity
  8
0
100
AcDbLine
 62
7
  6
CONTINUOUS
 10
297.133284167
 20
221.7604002824
 11
298.115075382
 21
215.3816487207
  0
LINE
  5
308
100
AcDbEntity
  8
0
100
AcDbLine
 62
7
  6
CONTINUOUS
 10
302.6108800223
 20
222.2617596556
 11
302.4076872762
 21
221.5284522886
  0
LINE
  5
309
100
AcDbEntity
  8
0
100
AcDbLine
 62
7
  6
CONTINUOUS
 10
293.9924903503
 20
193.6306008462
 11
294.2244194598
 21
194.3053496277
  0
LINE
  5
30A
100
AcDbEntity
  8
0
100
AcDbLine
 62
7
  6
CONTINUOUS
 10
302.4076872762
 20
221.5284522886
 11
304.6953274055
 21
217.3484386101
  0
LINE
  5
30B
100
AcDbEntity
  8
0
100
AcDbLine
 62
7
  6
CONTINUOUS
 10
303.962896299
 20
217.3160437308
 11
308.7215460173
 21
207.618929593
  0
LINE
  5
30C
100
AcDbEntity
  8
0
100
AcDbLine
 62
7
  6
CONTINUOUS
 10
310.302598008
 20
204.960160402
 11
308.9978643438
 21
207.618929593
  0
LINE
  5
30D
100
AcDbEntity
  8
0
100
AcDbLine
 62
7
  6
CONTINUOUS
 10
304.2392146255
 20
217.3160437308
 11
302.9344809612
 21
219.9748129218
  0
LINE
  5
30E
100
AcDbEntity
  8
0
100
AcDbLine
 62
7
  6
CONTINUOUS
 10
304.0151370698
 20
211.1584753288
 11
303.3651235844
 21
215.3816487207
  0
LINE
  5
30F
100
AcDbEntity
  8
0
100
AcDbLine
 62
7
  6
CONTINUOUS
 10
302.8079084324
 20
220.7971616078
 11
302.9344809612
 21
219.9748129218
  0
LINE
  5
310
100
AcDbEntity
  8
0
100
AcDbLine
 62
7
  6
CONTINUOUS
 10
304.8214266338
 20
222.2617596556
 11
304.6182338877
 21
221.5284522886
  0
LINE
  5
311
100
AcDbEntity
  8
0
100
AcDbLine
 62
7
  6
CONTINUOUS
 10
303.3651235844
 20
215.3816487207
 11
303.962896299
 21
217.3160437308
  0
LINE
  5
312
100
AcDbEntity
  8
0
100
AcDbLine
 62
7
  6
CONTINUOUS
 10
305.8279483397
 20
222.4614580413
 11
305.4252735307
 21
221.1584006716
  0
LINE
  5
313
100
AcDbEntity
  8
0
100
AcDbLine
 62
7
  6
CONTINUOUS
 10
304.6182338877
 20
221.5284522886
 11
306.905874017
 21
217.3484386101
  0
LINE
  5
314
100
AcDbEntity
  8
0
100
AcDbLine
 62
7
  6
CONTINUOUS
 10
306.8380774762
 20
218.5769020604
 11
304.8214266338
 21
222.2617596556
  0
LINE
  5
315
100
AcDbEntity
  8
0
100
AcDbLine
 62
7
  6
CONTINUOUS
 10
313.9929968551
 20
198.4017694487
 11
316.0979564657
 21
193.6306008462
  0
LINE
  5
316
100
AcDbEntity
  8
0
100
AcDbLine
 62
7
  6
CONTINUOUS
 10
316.2035434666
 20
198.4017694487
 11
318.3085030772
 21
193.6306008462
  0
LINE
  5
317
100
AcDbEntity
  8
0
100
AcDbLine
 62
7
  6
CONTINUOUS
 10
308.0384949513
 20
222.4614580413
 11
306.8380774762
 21
218.5769020603
  0
LINE
  5
318
100
AcDbEntity
  8
0
100
AcDbLine
 62
7
  6
CONTINUOUS
 10
306.905874017
 20
217.3484386101
 11
308.485915058
 21
222.4614580413
  0
LINE
  5
319
100
AcDbEntity
  8
0
100
AcDbLine
 62
7
  6
CONTINUOUS
 10
303.4865262057
 20
203.7461459419
 11
301.8349904916
 21
198.4017694487
  0
LINE
  5
31A
100
AcDbEntity
  8
0
100
AcDbLine
 62
7
  6
CONTINUOUS
 10
310.3556831205
 20
219.9748129218
 11
311.6123644726
 21
221.7604002824
  0
LINE
  5
31B
100
AcDbEntity
  8
0
100
AcDbLine
 62
7
  6
CONTINUOUS
 10
318.1296166645
 20
203.1866970493
 11
317.8550791807
 21
203.7461459419
  0
LINE
  5
31C
100
AcDbEntity
  8
0
100
AcDbLine
 62
7
  6
CONTINUOUS
 10
318.5404321868
 20
194.3053496277
 11
316.6848218932
 21
198.5113351138
  0
LINE
  5
31D
100
AcDbEntity
  8
0
100
AcDbLine
 62
7
  6
CONTINUOUS
 10
311.2934720223
 20
223.4684660479
 11
317.611397426
 21
243.9132991357
  0
LINE
  5
31E
100
AcDbEntity
  8
0
100
AcDbLine
 62
7
  6
CONTINUOUS
 10
305.6970728172
 20
203.7461459419
 11
304.0455371031
 21
198.4017694487
  0
LINE
  5
31F
100
AcDbEntity
  8
0
100
AcDbLine
 62
7
  6
CONTINUOUS
 10
304.5268155297
 20
198.5113351138
 11
305.971610301
 21
203.1866970493
  0
LINE
  5
320
100
AcDbEntity
  8
0
100
AcDbLine
 62
7
  6
CONTINUOUS
 10
308.1237733027
 20
205.6845345829
 11
308.7215460173
 21
207.618929593
  0
LINE
  5
321
100
AcDbEntity
  8
0
100
AcDbLine
 62
7
  6
CONTINUOUS
 10
313.5004569484
 20
222.3495682628
 11
319.8183823522
 21
242.7944013505
  0
LINE
  5
322
100
AcDbEntity
  8
0
100
AcDbLine
 62
7
  6
CONTINUOUS
 10
310.3556831205
 20
219.9748129218
 11
317.7238001673
 21
204.960160402
  0
LINE
  5
323
100
AcDbEntity
  8
0
100
AcDbLine
 62
7
  6
CONTINUOUS
 10
311.6123644726
 20
221.7604002824
 11
319.9949089764
 21
204.6785607628
  0
LINE
  5
324
100
AcDbEntity
  8
0
100
AcDbLine
 62
7
  6
CONTINUOUS
 10
321.8916874005
 20
202.2094081306
 11
312.0083379856
 21
222.3495682628
  0
LINE
  5
325
100
AcDbEntity
  8
0
100
AcDbLine
 62
7
  6
CONTINUOUS
 10
306.1504967137
 20
193.6306008462
 11
306.3824258233
 21
194.3053496277
  0
LINE
  5
326
100
AcDbEntity
  8
0
100
AcDbLine
 62
7
  6
CONTINUOUS
 10
323.3838063633
 20
202.2094081306
 11
313.5004569484
 21
222.3495682628
  0
LINE
  5
327
100
AcDbEntity
  8
0
100
AcDbLine
 62
7
  6
CONTINUOUS
 10
304.1171110813
 20
244.2043898393
 11
304.1523170748
 21
244.1326475263
  0
LINE
  5
328
100
AcDbEntity
  8
0
100
AcDbLine
 62
7
  6
CONTINUOUS
 10
315.6445325692
 20
203.7461459419
 11
313.9929968551
 21
198.4017694487
  0
LINE
  5
329
100
AcDbEntity
  8
0
100
AcDbLine
 62
7
  6
CONTINUOUS
 10
265.6635520547
 20
243.9132991357
 11
317.611397426
 21
243.9132991357
  0
LINE
  5
32A
100
AcDbEntity
  8
0
100
AcDbLine
 62
7
  6
CONTINUOUS
 10
303.212616701
 20
244.1326475263
 11
317.6916970067
 21
244.1326475263
  0
LINE
  5
32B
100
AcDbEntity
  8
0
100
AcDbLine
 62
7
  6
CONTINUOUS
 10
266.2124895533
 20
244.5944012582
 11
303.6813920879
 21
244.5944012928
  0
LINE
  5
32C
100
AcDbEntity
  8
0
100
AcDbLine
 62
7
  6
CONTINUOUS
 10
317.8550791807
 20
203.7461459419
 11
316.2035434666
 21
198.4017694487
  0
LINE
  5
32D
100
AcDbEntity
  8
0
100
AcDbLine
 62
7
  6
CONTINUOUS
 10
316.6848218932
 20
198.5113351138
 11
318.1296166645
 21
203.1866970493
  0
LINE
  5
32E
100
AcDbEntity
  8
0
100
AcDbLine
 62
7
  6
CONTINUOUS
 10
321.7808039014
 20
202.0975183521
 11
321.8448653546
 21
202.3048214832
  0
LINE
  5
32F
100
AcDbEntity
  8
0
100
AcDbLine
 62
7
  6
CONTINUOUS
 10
318.3085030772
 20
193.6306008462
 11
318.5404321868
 21
194.3053496277
  0
LINE
  5
330
100
AcDbEntity
  8
0
100
AcDbLine
 62
7
  6
CONTINUOUS
 10
323.3838063633
 20
202.2094081306
 11
329.7017317671
 21
222.6542412183
  0
LINE
  5
331
100
AcDbEntity
  8
0
100
AcDbLine
 62
7
  6
CONTINUOUS
 10
323.4456540084
 20
201.6779633296
 11
329.7635794121
 21
222.1227964173
  0
LINE
  5
332
100
AcDbEntity
  8
0
100
AcDbLine
 62
7
  6
CONTINUOUS
 10
319.8183823522
 20
242.7944013505
 11
329.7017317671
 21
222.6542412183
  0
LINE
  5
333
100
AcDbEntity
  8
0
100
AcDbLine
 62
7
  6
CONTINUOUS
 10
319.8678134905
 20
243.029399432
 11
322.613188328
 21
237.4349105064
  0
LINE
  5
334
100
AcDbEntity
  8
0
100
AcDbLine
 62
7
  6
CONTINUOUS
 10
322.5217643353
 20
237.9928889089
 11
329.6597389128
 21
223.4472177023
  0
LINE
  5
335
100
AcDbEntity
  8
0
100
AcDbLine
 62
7
  6
CONTINUOUS
 10
85.5
 20
113.5125
 11
85.5
 21
81.1125
  0
LINE
  5
336
100
AcDbEntity
  8
0
100
AcDbLine
 62
7
  6
CONTINUOUS
 10
87.12
 20
113.5125
 11
87.12
 21
81.1125
  0
LINE
  5
337
100
AcDbEntity
  8
0
100
AcDbLine
 62
7
  6
CONTINUOUS
 10
88.68
 20
83.5725
 11
88.68
 21
111.0525
  0
LINE
  5
338
100
AcDbEntity
  8
0
100
AcDbLine
 62
7
  6
CONTINUOUS
 10
90.3427687753
 20
85.2352687753
 11
90.3427687753
 21
109.3897312247
  0
LINE
  5
339
100
AcDbEntity
  8
0
100
AcDbLine
 62
7
  6
CONTINUOUS
 10
91.5
 20
119.7996023606
 11
91.5
 21
112.5525
  0
LINE
  5
33A
100
AcDbEntity
  8
0
100
AcDbLine
 62
7
  6
CONTINUOUS
 10
91.5
 20
82.0725
 11
91.5
 21
74.8253976394
  0
LINE
  5
33B
100
AcDbEntity
  8
0
100
AcDbLine
 62
7
  6
CONTINUOUS
 10
91.5
 20
74.8253976394
 11
93.9
 21
74.8253976394
  0
LINE
  5
33C
100
AcDbEntity
  8
0
100
AcDbLine
 62
7
  6
CONTINUOUS
 10
110.7
 20
74.8253976394
 11
113.1
 21
74.8253976394
  0
LINE
  5
33D
100
AcDbEntity
  8
0
100
AcDbLine
 62
7
  6
CONTINUOUS
 10
123.9
 20
74.8253976394
 11
126.3
 21
74.8253976394
  0
LINE
  5
33E
100
AcDbEntity
  8
0
100
AcDbLine
 62
7
  6
CONTINUOUS
 10
137.1
 20
74.8253976394
 11
139.5
 21
74.8253976394
  0
LINE
  5
33F
100
AcDbEntity
  8
0
100
AcDbLine
 62
7
  6
CONTINUOUS
 10
91.5
 20
74.8725
 11
93.9
 21
74.8725
  0
LINE
  5
340
100
AcDbEntity
  8
0
100
AcDbLine
 62
7
  6
CONTINUOUS
 10
110.7
 20
74.8725
 11
113.1
 21
74.8725
  0
LINE
  5
341
100
AcDbEntity
  8
0
100
AcDbLine
 62
7
  6
CONTINUOUS
 10
123.9
 20
74.8725
 11
126.3
 21
74.8725
  0
LINE
  5
342
100
AcDbEntity
  8
0
100
AcDbLine
 62
7
  6
CONTINUOUS
 10
137.1
 20
74.8725
 11
139.5
 21
74.8725
  0
LINE
  5
343
100
AcDbEntity
  8
0
100
AcDbLine
 62
7
  6
CONTINUOUS
 10
93.9
 20
119.7996023606
 11
93.9
 21
112.5525
  0
LINE
  5
344
100
AcDbEntity
  8
0
100
AcDbLine
 62
7
  6
CONTINUOUS
 10
93.9
 20
82.0725
 11
93.9
 21
74.8253976394
  0
LINE
  5
345
100
AcDbEntity
  8
0
100
AcDbLine
 62
7
  6
CONTINUOUS
 10
87.3
 20
79.3125
 11
91.5
 21
79.3125
  0
LINE
  5
346
100
AcDbEntity
  8
0
100
AcDbLine
 62
7
  6
CONTINUOUS
 10
93.9
 20
79.3125
 11
110.7
 21
79.3125
  0
LINE
  5
347
100
AcDbEntity
  8
0
100
AcDbLine
 62
7
  6
CONTINUOUS
 10
113.1
 20
79.3125
 11
123.9
 21
79.3125
  0
LINE
  5
348
100
AcDbEntity
  8
0
100
AcDbLine
 62
7
  6
CONTINUOUS
 10
126.3
 20
79.3125
 11
137.1
 21
79.3125
  0
LINE
  5
349
100
AcDbEntity
  8
0
100
AcDbLine
 62
7
  6
CONTINUOUS
 10
139.5
 20
79.3125
 11
143.7
 21
79.3125
  0
LINE
  5
34A
100
AcDbEntity
  8
0
100
AcDbLine
 62
7
  6
CONTINUOUS
 10
98.4
 20
111.0525
 11
98.4
 21
105.1125
  0
LINE
  5
34B
100
AcDbEntity
  8
0
100
AcDbLine
 62
7
  6
CONTINUOUS
 10
98.4
 20
83.5725
 11
98.4
 21
89.5125
  0
LINE
  5
34C
100
AcDbEntity
  8
0
100
AcDbLine
 62
7
  6
CONTINUOUS
 10
98.7
 20
89.5125
 11
98.7
 21
105.1125
  0
LINE
  5
34D
100
AcDbEntity
  8
0
100
AcDbLine
 62
7
  6
CONTINUOUS
 10
87.3
 20
80.9325
 11
91.5
 21
80.9325
  0
LINE
  5
34E
100
AcDbEntity
  8
0
100
AcDbLine
 62
7
  6
CONTINUOUS
 10
93.9
 20
80.9325
 11
110.7
 21
80.9325
  0
LINE
  5
34F
100
AcDbEntity
  8
0
100
AcDbLine
 62
7
  6
CONTINUOUS
 10
113.1
 20
80.9325
 11
123.9
 21
80.9325
  0
LINE
  5
350
100
AcDbEntity
  8
0
100
AcDbLine
 62
7
  6
CONTINUOUS
 10
126.3
 20
80.9325
 11
137.1
 21
80.9325
  0
LINE
  5
351
100
AcDbEntity
  8
0
100
AcDbLine
 62
7
  6
CONTINUOUS
 10
139.5
 20
80.9325
 11
143.7
 21
80.9325
  0
LINE
  5
352
100
AcDbEntity
  8
0
100
AcDbLine
 62
7
  6
CONTINUOUS
 10
91.5
 20
82.0725
 11
93.9
 21
82.0725
  0
LINE
  5
353
100
AcDbEntity
  8
0
100
AcDbLine
 62
7
  6
CONTINUOUS
 10
110.7
 20
82.0725
 11
113.1
 21
82.0725
  0
LINE
  5
354
100
AcDbEntity
  8
0
100
AcDbLine
 62
7
  6
CONTINUOUS
 10
123.9
 20
82.0725
 11
126.3
 21
82.0725
  0
LINE
  5
355
100
AcDbEntity
  8
0
100
AcDbLine
 62
7
  6
CONTINUOUS
 10
137.1
 20
82.0725
 11
139.5
 21
82.0725
  0
LINE
  5
356
100
AcDbEntity
  8
0
100
AcDbLine
 62
7
  6
CONTINUOUS
 10
88.68
 20
83.5725
 11
98.4
 21
83.5725
  0
LINE
  5
357
100
AcDbEntity
  8
0
100
AcDbLine
 62
7
  6
CONTINUOUS
 10
104.4
 20
83.5725
 11
126.6
 21
83.5725
  0
LINE
  5
358
100
AcDbEntity
  8
0
100
AcDbLine
 62
7
  6
CONTINUOUS
 10
132.6
 20
83.5725
 11
142.32
 21
83.5725
  0
LINE
  5
359
100
AcDbEntity
  8
0
100
AcDbLine
 62
7
  6
CONTINUOUS
 10
104.4
 20
111.0525
 11
104.4
 21
105.1125
  0
LINE
  5
35A
100
AcDbEntity
  8
0
100
AcDbLine
 62
7
  6
CONTINUOUS
 10
104.4
 20
83.5725
 11
104.4
 21
89.5125
  0
LINE
  5
35B
100
AcDbEntity
  8
0
100
AcDbLine
 62
7
  6
CONTINUOUS
 10
90.3427687753
 20
85.2352687753
 11
98.4
 21
85.2352687753
  0
LINE
  5
35C
100
AcDbEntity
  8
0
100
AcDbLine
 62
7
  6
CONTINUOUS
 10
132.6
 20
85.2352687753
 11
140.6572312247
 21
85.2352687753
  0
LINE
  5
35D
100
AcDbEntity
  8
0
100
AcDbLine
 62
7
  6
CONTINUOUS
 10
90.3427687753
 20
85.2352687753
 11
88.68
 21
83.5725
  0
LINE
  5
35E
100
AcDbEntity
  8
0
100
AcDbLine
 62
7
  6
CONTINUOUS
 10
132.6
 20
89.5125
 11
126.6
 21
89.5125
  0
LINE
  5
35F
100
AcDbEntity
  8
0
100
AcDbLine
 62
7
  6
CONTINUOUS
 10
104.4
 20
89.5125
 11
98.4
 21
89.5125
  0
LINE
  5
360
100
AcDbEntity
  8
0
100
AcDbLine
 62
7
  6
CONTINUOUS
 10
88.68
 20
111.0525
 11
90.3427687753
 21
109.3897312247
  0
LINE
  5
361
100
AcDbEntity
  8
0
100
AcDbLine
 62
7
  6
CONTINUOUS
 10
110.7
 20
119.7996023606
 11
110.7
 21
112.5525
  0
LINE
  5
362
100
AcDbEntity
  8
0
100
AcDbLine
 62
7
  6
CONTINUOUS
 10
110.7
 20
82.0725
 11
110.7
 21
74.8253976394
  0
LINE
  5
363
100
AcDbEntity
  8
0
100
AcDbLine
 62
7
  6
CONTINUOUS
 10
113.1
 20
119.7996023606
 11
113.1
 21
112.5525
  0
LINE
  5
364
100
AcDbEntity
  8
0
100
AcDbLine
 62
7
  6
CONTINUOUS
 10
113.1
 20
82.0725
 11
113.1
 21
74.8253976394
  0
LINE
  5
365
100
AcDbEntity
  8
0
100
AcDbLine
 62
7
  6
CONTINUOUS
 10
98.7
 20
93.4451896031
 11
132.3
 21
93.4451896031
  0
LINE
  5
366
100
AcDbEntity
  8
0
100
AcDbLine
 62
7
  6
CONTINUOUS
 10
98.7
 20
101.1798103969
 11
132.3
 21
101.1798103969
  0
LINE
  5
367
100
AcDbEntity
  8
0
100
AcDbLine
 62
7
  6
CONTINUOUS
 10
98.4
 20
105.1125
 11
104.4
 21
105.1125
  0
LINE
  5
368
100
AcDbEntity
  8
0
100
AcDbLine
 62
7
  6
CONTINUOUS
 10
126.6
 20
105.1125
 11
132.6
 21
105.1125
  0
LINE
  5
369
100
AcDbEntity
  8
0
100
AcDbLine
 62
7
  6
CONTINUOUS
 10
123.9
 20
119.7996023606
 11
123.9
 21
112.5525
  0
LINE
  5
36A
100
AcDbEntity
  8
0
100
AcDbLine
 62
7
  6
CONTINUOUS
 10
123.9
 20
82.0725
 11
123.9
 21
74.8253976394
  0
LINE
  5
36B
100
AcDbEntity
  8
0
100
AcDbLine
 62
7
  6
CONTINUOUS
 10
140.6572312247
 20
109.3897312247
 11
142.32
 21
111.0525
  0
LINE
  5
36C
100
AcDbEntity
  8
0
100
AcDbLine
 62
7
  6
CONTINUOUS
 10
142.32
 20
83.5725
 11
140.6572312247
 21
85.2352687753
  0
LINE
  5
36D
100
AcDbEntity
  8
0
100
AcDbLine
 62
7
  6
CONTINUOUS
 10
126.3
 20
119.7996023606
 11
126.3
 21
112.5525
  0
LINE
  5
36E
100
AcDbEntity
  8
0
100
AcDbLine
 62
7
  6
CONTINUOUS
 10
126.3
 20
82.0725
 11
126.3
 21
74.8253976394
  0
LINE
  5
36F
100
AcDbEntity
  8
0
100
AcDbLine
 62
7
  6
CONTINUOUS
 10
126.6
 20
111.0525
 11
126.6
 21
105.1125
  0
LINE
  5
370
100
AcDbEntity
  8
0
100
AcDbLine
 62
7
  6
CONTINUOUS
 10
126.6
 20
83.5725
 11
126.6
 21
89.5125
  0
LINE
  5
371
100
AcDbEntity
  8
0
100
AcDbLine
 62
7
  6
CONTINUOUS
 10
90.3427687753
 20
109.3897312247
 11
98.4
 21
109.3897312247
  0
LINE
  5
372
100
AcDbEntity
  8
0
100
AcDbLine
 62
7
  6
CONTINUOUS
 10
132.6
 20
109.3897312247
 11
140.6572312247
 21
109.3897312247
  0
LINE
  5
373
100
AcDbEntity
  8
0
100
AcDbLine
 62
7
  6
CONTINUOUS
 10
88.68
 20
111.0525
 11
98.4
 21
111.0525
  0
LINE
  5
374
100
AcDbEntity
  8
0
100
AcDbLine
 62
7
  6
CONTINUOUS
 10
104.4
 20
111.0525
 11
126.6
 21
111.0525
  0
LINE
  5
375
100
AcDbEntity
  8
0
100
AcDbLine
 62
7
  6
CONTINUOUS
 10
132.6
 20
111.0525
 11
142.32
 21
111.0525
  0
LINE
  5
376
100
AcDbEntity
  8
0
100
AcDbLine
 62
7
  6
CONTINUOUS
 10
91.5
 20
112.5525
 11
93.9
 21
112.5525
  0
LINE
  5
377
100
AcDbEntity
  8
0
100
AcDbLine
 62
7
  6
CONTINUOUS
 10
110.7
 20
112.5525
 11
113.1
 21
112.5525
  0
LINE
  5
378
100
AcDbEntity
  8
0
100
AcDbLine
 62
7
  6
CONTINUOUS
 10
123.9
 20
112.5525
 11
126.3
 21
112.5525
  0
LINE
  5
379
100
AcDbEntity
  8
0
100
AcDbLine
 62
7
  6
CONTINUOUS
 10
137.1
 20
112.5525
 11
139.5
 21
112.5525
  0
LINE
  5
37A
100
AcDbEntity
  8
0
100
AcDbLine
 62
7
  6
CONTINUOUS
 10
132.3
 20
89.5125
 11
132.3
 21
105.1125
  0
LINE
  5
37B
100
AcDbEntity
  8
0
100
AcDbLine
 62
7
  6
CONTINUOUS
 10
132.6
 20
83.5725
 11
132.6
 21
89.5125
  0
LINE
  5
37C
100
AcDbEntity
  8
0
100
AcDbLine
 62
7
  6
CONTINUOUS
 10
132.6
 20
105.1125
 11
132.6
 21
111.0525
  0
LINE
  5
37D
100
AcDbEntity
  8
0
100
AcDbLine
 62
7
  6
CONTINUOUS
 10
143.7
 20
113.6925
 11
139.5
 21
113.6925
  0
LINE
  5
37E
100
AcDbEntity
  8
0
100
AcDbLine
 62
7
  6
CONTINUOUS
 10
137.1
 20
113.6925
 11
126.3
 21
113.6925
  0
LINE
  5
37F
100
AcDbEntity
  8
0
100
AcDbLine
 62
7
  6
CONTINUOUS
 10
123.9
 20
113.6925
 11
113.1
 21
113.6925
  0
LINE
  5
380
100
AcDbEntity
  8
0
100
AcDbLine
 62
7
  6
CONTINUOUS
 10
110.7
 20
113.6925
 11
93.9
 21
113.6925
  0
LINE
  5
381
100
AcDbEntity
  8
0
100
AcDbLine
 62
7
  6
CONTINUOUS
 10
91.5
 20
113.6925
 11
87.3
 21
113.6925
  0
LINE
  5
382
100
AcDbEntity
  8
0
100
AcDbLine
 62
7
  6
CONTINUOUS
 10
143.7
 20
115.3125
 11
139.5
 21
115.3125
  0
LINE
  5
383
100
AcDbEntity
  8
0
100
AcDbLine
 62
7
  6
CONTINUOUS
 10
137.1
 20
115.3125
 11
126.3
 21
115.3125
  0
LINE
  5
384
100
AcDbEntity
  8
0
100
AcDbLine
 62
7
  6
CONTINUOUS
 10
123.9
 20
115.3125
 11
113.1
 21
115.3125
  0
LINE
  5
385
100
AcDbEntity
  8
0
100
AcDbLine
 62
7
  6
CONTINUOUS
 10
110.7
 20
115.3125
 11
93.9
 21
115.3125
  0
LINE
  5
386
100
AcDbEntity
  8
0
100
AcDbLine
 62
7
  6
CONTINUOUS
 10
91.5
 20
115.3125
 11
87.3
 21
115.3125
  0
LINE
  5
387
100
AcDbEntity
  8
0
100
AcDbLine
 62
7
  6
CONTINUOUS
 10
137.1
 20
119.7996023606
 11
137.1
 21
112.5525
  0
LINE
  5
388
100
AcDbEntity
  8
0
100
AcDbLine
 62
7
  6
CONTINUOUS
 10
137.1
 20
82.0725
 11
137.1
 21
74.8253976394
  0
LINE
  5
389
100
AcDbEntity
  8
0
100
AcDbLine
 62
7
  6
CONTINUOUS
 10
91.5
 20
119.7525
 11
93.9
 21
119.7525
  0
LINE
  5
38A
100
AcDbEntity
  8
0
100
AcDbLine
 62
7
  6
CONTINUOUS
 10
110.7
 20
119.7525
 11
113.1
 21
119.7525
  0
LINE
  5
38B
100
AcDbEntity
  8
0
100
AcDbLine
 62
7
  6
CONTINUOUS
 10
123.9
 20
119.7525
 11
126.3
 21
119.7525
  0
LINE
  5
38C
100
AcDbEntity
  8
0
100
AcDbLine
 62
7
  6
CONTINUOUS
 10
137.1
 20
119.7525
 11
139.5
 21
119.7525
  0
LINE
  5
38D
100
AcDbEntity
  8
0
100
AcDbLine
 62
7
  6
CONTINUOUS
 10
91.5
 20
119.7996023606
 11
93.9
 21
119.7996023606
  0
LINE
  5
38E
100
AcDbEntity
  8
0
100
AcDbLine
 62
7
  6
CONTINUOUS
 10
110.7
 20
119.7996023606
 11
113.1
 21
119.7996023606
  0
LINE
  5
38F
100
AcDbEntity
  8
0
100
AcDbLine
 62
7
  6
CONTINUOUS
 10
123.9
 20
119.7996023606
 11
126.3
 21
119.7996023606
  0
LINE
  5
390
100
AcDbEntity
  8
0
100
AcDbLine
 62
7
  6
CONTINUOUS
 10
137.1
 20
119.7996023606
 11
139.5
 21
119.7996023606
  0
LINE
  5
391
100
AcDbEntity
  8
0
100
AcDbLine
 62
7
  6
CONTINUOUS
 10
139.5
 20
119.7996023606
 11
139.5
 21
112.5525
  0
LINE
  5
392
100
AcDbEntity
  8
0
100
AcDbLine
 62
7
  6
CONTINUOUS
 10
139.5
 20
82.0725
 11
139.5
 21
74.8253976394
  0
LINE
  5
393
100
AcDbEntity
  8
0
100
AcDbLine
 62
7
  6
CONTINUOUS
 10
140.6572312247
 20
109.3897312247
 11
140.6572312247
 21
85.2352687753
  0
LINE
  5
394
100
AcDbEntity
  8
0
100
AcDbLine
 62
7
  6
CONTINUOUS
 10
142.32
 20
111.0525
 11
142.32
 21
83.5725
  0
LINE
  5
395
100
AcDbEntity
  8
0
100
AcDbLine
 62
7
  6
CONTINUOUS
 10
143.88
 20
81.1125
 11
143.88
 21
113.5125
  0
LINE
  5
396
100
AcDbEntity
  8
0
100
AcDbLine
 62
7
  6
CONTINUOUS
 10
145.5
 20
81.1125
 11
145.5
 21
113.5125
  0
LINE
  5
397
100
AcDbEntity
  8
0
100
AcDbLine
 62
7
  6
CONTINUOUS
 10
85.5
 20
187.1625
 11
85.5
 21
213.2625
  0
LINE
  5
398
100
AcDbEntity
  8
0
100
AcDbLine
 62
7
  6
CONTINUOUS
 10
87.3
 20
187.1625
 11
87.3
 21
215.0625
  0
LINE
  5
399
100
AcDbEntity
  8
0
100
AcDbLine
 62
7
  6
CONTINUOUS
 10
91.5
 20
187.1625
 11
91.5
 21
181.1625
  0
LINE
  5
39A
100
AcDbEntity
  8
0
100
AcDbLine
 62
7
  6
CONTINUOUS
 10
93.9
 20
187.1625
 11
93.9
 21
181.1625
  0
LINE
  5
39B
100
AcDbEntity
  8
0
100
AcDbLine
 62
7
  6
CONTINUOUS
 10
98.7
 20
182.6625
 11
98.7
 21
187.1625
  0
LINE
  5
39C
100
AcDbEntity
  8
0
100
AcDbLine
 62
7
  6
CONTINUOUS
 10
91.5
 20
181.1625
 11
93.9
 21
181.1625
  0
LINE
  5
39D
100
AcDbEntity
  8
0
100
AcDbLine
 62
7
  6
CONTINUOUS
 10
110.7
 20
181.1625
 11
113.1
 21
181.1625
  0
LINE
  5
39E
100
AcDbEntity
  8
0
100
AcDbLine
 62
7
  6
CONTINUOUS
 10
123.9
 20
181.1625
 11
126.3
 21
181.1625
  0
LINE
  5
39F
100
AcDbEntity
  8
0
100
AcDbLine
 62
7
  6
CONTINUOUS
 10
137.1
 20
181.1625
 11
139.5
 21
181.1625
  0
LINE
  5
3A0
100
AcDbEntity
  8
0
100
AcDbLine
 62
7
  6
CONTINUOUS
 10
91.5
 20
182.0612665813
 11
93.9
 21
182.0612665813
  0
LINE
  5
3A1
100
AcDbEntity
  8
0
100
AcDbLine
 62
7
  6
CONTINUOUS
 10
110.7
 20
182.0612665813
 11
113.1
 21
182.0612665813
  0
LINE
  5
3A2
100
AcDbEntity
  8
0
100
AcDbLine
 62
7
  6
CONTINUOUS
 10
123.9
 20
182.0612665813
 11
126.3
 21
182.0612665813
  0
LINE
  5
3A3
100
AcDbEntity
  8
0
100
AcDbLine
 62
7
  6
CONTINUOUS
 10
137.1
 20
182.0612665813
 11
139.5
 21
182.0612665813
  0
LINE
  5
3A4
100
AcDbEntity
  8
0
100
AcDbLine
 62
7
  6
CONTINUOUS
 10
91.5
 20
182.3939041209
 11
93.9
 21
182.3939041209
  0
LINE
  5
3A5
100
AcDbEntity
  8
0
100
AcDbLine
 62
7
  6
CONTINUOUS
 10
110.7
 20
182.3939041209
 11
113.1
 21
182.3939041209
  0
LINE
  5
3A6
100
AcDbEntity
  8
0
100
AcDbLine
 62
7
  6
CONTINUOUS
 10
123.9
 20
182.3939041209
 11
126.3
 21
182.3939041209
  0
LINE
  5
3A7
100
AcDbEntity
  8
0
100
AcDbLine
 62
7
  6
CONTINUOUS
 10
137.1
 20
182.3939041209
 11
139.5
 21
182.3939041209
  0
LINE
  5
3A8
100
AcDbEntity
  8
0
100
AcDbLine
 62
7
  6
CONTINUOUS
 10
98.7
 20
182.6625
 11
110.7
 21
182.6625
  0
LINE
  5
3A9
100
AcDbEntity
  8
0
100
AcDbLine
 62
7
  6
CONTINUOUS
 10
113.1
 20
182.6625
 11
123.9
 21
182.6625
  0
LINE
  5
3AA
100
AcDbEntity
  8
0
100
AcDbLine
 62
7
  6
CONTINUOUS
 10
126.3
 20
182.6625
 11
132.3
 21
182.6625
  0
LINE
  5
3AB
100
AcDbEntity
  8
0
100
AcDbLine
 62
7
  6
CONTINUOUS
 10
98.7
 20
184.933039401
 11
104.4
 21
184.933039401
  0
LINE
  5
3AC
100
AcDbEntity
  8
0
100
AcDbLine
 62
7
  6
CONTINUOUS
 10
126.6
 20
184.933039401
 11
132.3
 21
184.933039401
  0
LINE
  5
3AD
100
AcDbEntity
  8
0
100
AcDbLine
 62
7
  6
CONTINUOUS
 10
104.4
 20
187.1625
 11
104.4
 21
184.933039401
  0
LINE
  5
3AE
100
AcDbEntity
  8
0
100
AcDbLine
 62
7
  6
CONTINUOUS
 10
145.5
 20
187.1625
 11
85.5
 21
187.1625
  0
LINE
  5
3AF
100
AcDbEntity
  8
0
100
AcDbLine
 62
7
  6
CONTINUOUS
 10
110.7
 20
187.1625
 11
110.7
 21
181.1625
  0
LINE
  5
3B0
100
AcDbEntity
  8
0
100
AcDbLine
 62
7
  6
CONTINUOUS
 10
113.1
 20
187.1625
 11
113.1
 21
181.1625
  0
LINE
  5
3B1
100
AcDbEntity
  8
0
100
AcDbLine
 62
7
  6
CONTINUOUS
 10
123.9
 20
187.1625
 11
123.9
 21
181.1625
  0
LINE
  5
3B2
100
AcDbEntity
  8
0
100
AcDbLine
 62
7
  6
CONTINUOUS
 10
126.3
 20
187.1625
 11
126.3
 21
181.1625
  0
LINE
  5
3B3
100
AcDbEntity
  8
0
100
AcDbLine
 62
7
  6
CONTINUOUS
 10
126.6
 20
187.1625
 11
126.6
 21
184.933039401
  0
LINE
  5
3B4
100
AcDbEntity
  8
0
100
AcDbLine
 62
7
  6
CONTINUOUS
 10
127.98
 20
215.0625
 11
127.98
 21
213.5625
  0
LINE
  5
3B5
100
AcDbEntity
  8
0
100
AcDbLine
 62
7
  6
CONTINUOUS
 10
129.48
 20
213.5625
 11
129.48
 21
214.7625
  0
LINE
  5
3B6
100
AcDbEntity
  8
0
100
AcDbLine
 62
7
  6
CONTINUOUS
 10
85.5
 20
213.2625
 11
145.5
 21
213.2625
  0
LINE
  5
3B7
100
AcDbEntity
  8
0
100
AcDbLine
 62
7
  6
CONTINUOUS
 10
127.98
 20
213.5625
 11
145.4748239349
 21
213.5625
  0
LINE
  5
3B8
100
AcDbEntity
  8
0
100
AcDbLine
 62
7
  6
CONTINUOUS
 10
132.3
 20
182.6625
 11
132.3
 21
187.1625
  0
LINE
  5
3B9
100
AcDbEntity
  8
0
100
AcDbLine
 62
7
  6
CONTINUOUS
 10
132.78
 20
215.0625
 11
132.78
 21
214.7625
  0
LINE
  5
3BA
100
AcDbEntity
  8
0
100
AcDbLine
 62
7
  6
CONTINUOUS
 10
129.48
 20
214.7625
 11
136.08
 21
214.7625
  0
LINE
  5
3BB
100
AcDbEntity
  8
0
100
AcDbLine
 62
7
  6
CONTINUOUS
 10
87.3
 20
215.0625
 11
143.7
 21
215.0625
  0
LINE
  5
3BC
100
AcDbEntity
  8
0
100
AcDbLine
 62
7
  6
CONTINUOUS
 10
136.08
 20
213.5625
 11
136.08
 21
214.7625
  0
LINE
  5
3BD
100
AcDbEntity
  8
0
100
AcDbLine
 62
7
  6
CONTINUOUS
 10
137.1
 20
187.1625
 11
137.1
 21
181.1625
  0
LINE
  5
3BE
100
AcDbEntity
  8
0
100
AcDbLine
 62
7
  6
CONTINUOUS
 10
139.5
 20
187.1625
 11
139.5
 21
181.1625
  0
LINE
  5
3BF
100
AcDbEntity
  8
0
100
AcDbLine
 62
7
  6
CONTINUOUS
 10
143.7
 20
187.1625
 11
143.7
 21
213.5625
  0
LINE
  5
3C0
100
AcDbEntity
  8
0
100
AcDbLine
 62
7
  6
CONTINUOUS
 10
145.5
 20
187.1625
 11
145.5
 21
213.2625
  0
LINE
  5
3C1
100
AcDbEntity
  8
0
100
AcDbLine
 62
7
  6
CONTINUOUS
 10
235.05
 20
74.8725
 11
235.9487665813
 21
74.8253976394
  0
LINE
  5
3C2
100
AcDbEntity
  8
0
100
AcDbLine
 62
7
  6
CONTINUOUS
 10
241.05
 20
79.3125
 11
267.15
 21
79.3125
  0
LINE
  5
3C3
100
AcDbEntity
  8
0
100
AcDbLine
 62
7
  6
CONTINUOUS
 10
235.05
 20
119.7525
 11
235.4273360108
 21
112.5525
  0
LINE
  5
3C4
100
AcDbEntity
  8
0
100
AcDbLine
 62
7
  6
CONTINUOUS
 10
236.2814041209
 20
113.4525
 11
235.9487665813
 21
119.7996023606
  0
LINE
  5
3C5
100
AcDbEntity
  8
0
100
AcDbLine
 62
7
  6
CONTINUOUS
 10
236.55
 20
101.1798103969
 11
236.55
 21
93.4451896031
  0
LINE
  5
3C6
100
AcDbEntity
  8
0
100
AcDbLine
 62
7
  6
CONTINUOUS
 10
235.4273360108
 20
82.0725
 11
235.05
 21
74.8725
  0
LINE
  5
3C7
100
AcDbEntity
  8
0
100
AcDbLine
 62
7
  6
CONTINUOUS
 10
235.9487665813
 20
74.8253976394
 11
236.2814041209
 21
81.1725
  0
LINE
  5
3C8
100
AcDbEntity
  8
0
100
AcDbLine
 62
7
  6
CONTINUOUS
 10
236.55
 20
101.1798103969
 11
241.05
 21
108.9740390309
  0
LINE
  5
3C9
100
AcDbEntity
  8
0
100
AcDbLine
 62
7
  6
CONTINUOUS
 10
241.05
 20
81.1125
 11
268.95
 21
81.1125
  0
LINE
  5
3CA
100
AcDbEntity
  8
0
100
AcDbLine
 62
7
  6
CONTINUOUS
 10
236.2814041209
 20
81.1725
 11
241.05
 21
81.1725
  0
LINE
  5
3CB
100
AcDbEntity
  8
0
100
AcDbLine
 62
7
  6
CONTINUOUS
 10
241.05
 20
82.0725
 11
235.4273360108
 21
82.0725
  0
LINE
  5
3CC
100
AcDbEntity
  8
0
100
AcDbLine
 62
7
  6
CONTINUOUS
 10
236.55
 20
93.4451896031
 11
241.05
 21
85.6509609691
  0
LINE
  5
3CD
100
AcDbEntity
  8
0
100
AcDbLine
 62
7
  6
CONTINUOUS
 10
241.05
 20
79.3125
 11
241.05
 21
115.3125
  0
LINE
  5
3CE
100
AcDbEntity
  8
0
100
AcDbLine
 62
7
  6
CONTINUOUS
 10
238.820539401
 20
89.5125
 11
241.05
 21
89.5125
  0
LINE
  5
3CF
100
AcDbEntity
  8
0
100
AcDbLine
 62
7
  6
CONTINUOUS
 10
268.95
 20
104.5125
 11
267.45
 21
104.5125
  0
LINE
  5
3D0
100
AcDbEntity
  8
0
100
AcDbLine
 62
7
  6
CONTINUOUS
 10
238.820539401
 20
105.1125
 11
241.05
 21
105.1125
  0
LINE
  5
3D1
100
AcDbEntity
  8
0
100
AcDbLine
 62
7
  6
CONTINUOUS
 10
267.45
 20
106.0125
 11
268.65
 21
106.0125
  0
LINE
  5
3D2
100
AcDbEntity
  8
0
100
AcDbLine
 62
7
  6
CONTINUOUS
 10
268.95
 20
109.3125
 11
268.65
 21
109.3125
  0
LINE
  5
3D3
100
AcDbEntity
  8
0
100
AcDbLine
 62
7
  6
CONTINUOUS
 10
267.15
 20
115.3125
 11
267.15
 21
79.3125
  0
LINE
  5
3D4
100
AcDbEntity
  8
0
100
AcDbLine
 62
7
  6
CONTINUOUS
 10
235.4273360108
 20
112.5525
 11
241.05
 21
112.5525
  0
LINE
  5
3D5
100
AcDbEntity
  8
0
100
AcDbLine
 62
7
  6
CONTINUOUS
 10
267.45
 20
115.2873239349
 11
267.45
 21
104.5125
  0
LINE
  5
3D6
100
AcDbEntity
  8
0
100
AcDbLine
 62
7
  6
CONTINUOUS
 10
268.65
 20
112.6123517236
 11
268.65
 21
106.0126482764
  0
LINE
  5
3D7
100
AcDbEntity
  8
0
100
AcDbLine
 62
7
  6
CONTINUOUS
 10
268.95
 20
81.1125
 11
268.95
 21
113.5125
  0
LINE
  5
3D8
100
AcDbEntity
  8
0
100
AcDbLine
 62
7
  6
CONTINUOUS
 10
267.45
 20
112.6125
 11
268.65
 21
112.6125
  0
LINE
  5
3D9
100
AcDbEntity
  8
0
100
AcDbLine
 62
7
  6
CONTINUOUS
 10
241.05
 20
113.4525
 11
236.2814041209
 21
113.4525
  0
LINE
  5
3DA
100
AcDbEntity
  8
0
100
AcDbLine
 62
7
  6
CONTINUOUS
 10
241.05
 20
113.5125
 11
267.45
 21
113.5125
  0
LINE
  5
3DB
100
AcDbEntity
  8
0
100
AcDbLine
 62
7
  6
CONTINUOUS
 10
241.05
 20
115.3125
 11
267.15
 21
115.3125
  0
LINE
  5
3DC
100
AcDbEntity
  8
0
100
AcDbLine
 62
7
  6
CONTINUOUS
 10
235.9487665813
 20
119.7996023606
 11
235.05
 21
119.7525
  0
ARC
  5
3DD
100
AcDbEntity
  8
0
100
AcDbCircle
 62
7
  6
CONTINUOUS
 10
328.0438282787
 20
222.6542457673
 40
1.7999907001
100
AcDbArc
 50
342.8260063184
 51
26.1384609653
  0
ARC
  5
3DE
100
AcDbEntity
  8
0
100
AcDbCircle
 62
7
  6
CONTINUOUS
 10
266.2125921789
 20
242.7944558143
 40
1.7999329304
100
AcDbArc
 50
90.0032514878
 51
162.8481408685
  0
ARC
  5
3DF
100
AcDbEntity
  8
0
100
AcDbCircle
 62
7
  6
CONTINUOUS
 10
329.1988209839
 20
222.2974217794
 40
0.591130195
100
AcDbArc
 50
342.8183868456
 51
348.047159532
  0
ARC
  5
3E0
100
AcDbEntity
  8
0
100
AcDbCircle
 62
7
  6
CONTINUOUS
 10
143.7
 20
81.1125
 40
1.8
100
AcDbArc
 50
270.0
 51
360.0
  0
ARC
  5
3E1
100
AcDbEntity
  8
0
100
AcDbCircle
 62
7
  6
CONTINUOUS
 10
87.3
 20
81.1125
 40
1.8
100
AcDbArc
 50
180.0
 51
270.0
  0
ARC
  5
3E2
100
AcDbEntity
  8
0
100
AcDbCircle
 62
7
  6
CONTINUOUS
 10
87.3
 20
113.5125
 40
1.8
100
AcDbArc
 50
90.0
 51
180.0
  0
ARC
  5
3E3
100
AcDbEntity
  8
0
100
AcDbCircle
 62
7
  6
CONTINUOUS
 10
143.7
 20
113.5125
 40
1.8
100
AcDbArc
 50
0.0
 51
90.0
  0
ARC
  5
3E4
100
AcDbEntity
  8
0
100
AcDbCircle
 62
7
  6
CONTINUOUS
 10
143.7
 20
81.1125
 40
0.18
100
AcDbArc
 50
270.0
 51
360.0
  0
ARC
  5
3E5
100
AcDbEntity
  8
0
100
AcDbCircle
 62
7
  6
CONTINUOUS
 10
143.7
 20
113.5125
 40
0.18
100
AcDbArc
 50
0.0
 51
90.0
  0
ARC
  5
3E6
100
AcDbEntity
  8
0
100
AcDbCircle
 62
7
  6
CONTINUOUS
 10
87.3
 20
113.5125
 40
0.18
100
AcDbArc
 50
90.0
 51
180.0
  0
ARC
  5
3E7
100
AcDbEntity
  8
0
100
AcDbCircle
 62
7
  6
CONTINUOUS
 10
87.3
 20
81.1125
 40
0.18
100
AcDbArc
 50
180.0
 51
270.0
  0
ARC
  5
3E8
100
AcDbEntity
  8
0
100
AcDbCircle
 62
7
  6
CONTINUOUS
 10
143.7
 20
213.2625
 40
1.8
100
AcDbArc
 50
0.0
 51
90.0
  0
ARC
  5
3E9
100
AcDbEntity
  8
0
100
AcDbCircle
 62
7
  6
CONTINUOUS
 10
87.3
 20
213.2625
 40
1.8
100
AcDbArc
 50
90.0
 51
180.0
  0
ARC
  5
3EA
100
AcDbEntity
  8
0
100
AcDbCircle
 62
7
  6
CONTINUOUS
 10
267.15
 20
81.1125
 40
1.8
100
AcDbArc
 50
270.0
 51
360.0
  0
ARC
  5
3EB
100
AcDbEntity
  8
0
100
AcDbCircle
 62
7
  6
CONTINUOUS
 10
267.15
 20
113.5125
 40
1.8
100
AcDbArc
 50
0.0
 51
90.0
  0
SPLINE
  5
3EC
100
AcDbEntity
  8
0
100
AcDbSpline
 62
7
  6
CONTINUOUS
 70
0
 71
3
 72
15
 73
11
 74
0
 42
0.0000001
 43
0.0000001
 44
0.0000000001
 40
0.0
 40
0.0
 40
0.0
 40
0.0
 40
0.1557895
 40
0.3032548536
 40
0.4411358449
 40
0.5690848779
 40
0.6873891275
 40
0.7971114135
 40
0.9003257311
 40
1.0
 40
1.0
 40
1.0
 40
1.0
 10
322.2749713722
 20
201.0905103455
 30
0.0
 10
322.3474689905
 20
201.0905103455
 30
0.0
 10
322.4886977921
 20
201.0967659248
 30
0.0
 10
322.6922350597
 20
201.1261811303
 30
0.0
 10
322.8787323822
 20
201.175078511
 30
0.0
 10
323.0448480287
 20
201.2426693345
 30
0.0
 10
323.1877494258
 20
201.3279168469
 30
0.0
 10
323.3047152973
 20
201.4297866744
 30
0.0
 10
323.3932373829
 20
201.5466199009
 30
0.0
 10
323.4320098259
 20
201.6338272399
 30
0.0
 10
323.4457003063
 20
201.6781448474
 30
0.0
  0
SPLINE
  5
3ED
100
AcDbEntity
  8
0
100
AcDbSpline
 62
7
  6
CONTINUOUS
 70
0
 71
3
 72
15
 73
11
 74
0
 42
0.0000001
 43
0.0000001
 44
0.0000000001
 40
0.0
 40
0.0
 40
0.0
 40
0.0
 40
0.1002491534
 40
0.2118839856
 40
0.3337758461
 40
0.463722266
 40
0.5987463063
 40
0.7354469213
 40
0.8703430901
 40
1.0
 40
1.0
 40
1.0
 40
1.0
 10
268.1201410747
 20
202.2094081306
 30
0.0
 10
268.1581379658
 20
202.1319785631
 30
0.0
 10
268.2587099589
 20
201.9780201775
 30
0.0
 10
268.4579751502
 20
201.7696177212
 30
0.0
 10
268.7064590572
 20
201.5780339982
 30
0.0
 10
268.9948763287
 20
201.4102561049
 30
0.0
 10
269.3126069212
 20
201.2724449141
 30
0.0
 10
269.6477861443
 20
201.169689024
 30
0.0
 10
269.9877793333
 20
201.1059180598
 30
0.0
 10
270.215574556
 20
201.0905103455
 30
0.0
 10
270.3271260009
 20
201.0905103455
 30
0.0
  0
SPLINE
  5
3EE
100
AcDbEntity
  8
0
100
AcDbSpline
 62
7
  6
CONTINUOUS
 70
0
 71
3
 72
11
 73
7
 74
0
 42
0.0000001
 43
0.0000001
 44
0.0000000001
 40
0.0
 40
0.0
 40
0.0
 40
0.0
 40
0.2114537872
 40
0.4633497929
 40
0.7352952813
 40
1.0
 40
1.0
 40
1.0
 40
1.0
 10
312.0083379856
 20
222.3495682628
 30
0.0
 10
312.0003424899
 20
222.3658613795
 30
0.0
 10
311.9738868179
 20
222.3970537954
 30
0.0
 10
311.9205489134
 20
222.4317358965
 30
0.0
 10
311.8565137834
 20
222.4552330407
 30
0.0
 10
311.810359256
 20
222.4614580413
 30
0.0
 10
311.787639493
 20
222.4614580413
 30
0.0
  0
SPLINE
  5
3EF
100
AcDbEntity
  8
0
100
AcDbSpline
 62
7
  6
CONTINUOUS
 70
0
 71
3
 72
11
 73
7
 74
0
 42
0.0000001
 43
0.0000001
 44
0.0000000001
 40
0.0
 40
0.0
 40
0.0
 40
0.0
 40
0.3035453579
 40
0.5700866079
 40
0.7978084662
 40
1.0
 40
1.0
 40
1.0
 40
1.0
 10
259.8397941217
 20
222.4614580413
 30
0.0
 10
259.8257055756
 20
222.4614580413
 30
0.0
 10
259.7991455747
 20
222.4591981945
 30
0.0
 10
259.7634568594
 20
222.4479964129
 30
0.0
 10
259.7362521671
 20
222.4293383138
 30
0.0
 10
259.7254588036
 20
222.4115889398
 30
0.0
 10
259.7226976702
 20
222.4026199535
 30
0.0
  0
SPLINE
  5
3F0
100
AcDbEntity
  8
0
100
AcDbSpline
 62
7
  6
CONTINUOUS
 70
0
 71
3
 72
9
 73
5
 74
0
 42
0.0000001
 43
0.0000001
 44
0.0000000001
 40
0.0
 40
0.0
 40
0.0
 40
0.0
 40
0.4747940515
 40
1.0
 40
1.0
 40
1.0
 40
1.0
 10
321.897900353
 20
202.15635644
 30
0.0
 10
321.9004332584
 20
202.1645840738
 30
0.0
 10
321.9017298777
 20
202.1832935936
 30
0.0
 10
321.8958825683
 20
202.2008592727
 30
0.0
 10
321.8916874005
 20
202.2094081306
 30
0.0
  0
SPLINE
  5
3F1
100
AcDbEntity
  8
0
100
AcDbSpline
 62
7
  6
CONTINUOUS
 70
0
 71
3
 72
14
 73
10
 74
0
 42
0.0000001
 43
0.0000001
 44
0.0000000001
 40
0.0
 40
0.0
 40
0.0
 40
0.0
 40
0.3152194019
 40
0.4542699392
 40
0.5812476506
 40
0.6972308942
 40
0.8039282548
 40
0.9037971756
 40
1.0
 40
1.0
 40
1.0
 40
1.0
 10
304.1171110813
 20
244.2043898393
 30
0.0
 10
304.0887040761
 20
244.2622772628
 30
0.0
 10
304.0425130892
 20
244.3435364605
 30
0.0
 10
303.9695211925
 20
244.4376215183
 30
0.0
 10
303.9149232997
 20
244.4938023029
 30
0.0
 10
303.8585137185
 20
244.5381865857
 30
0.0
 10
303.8005277644
 20
244.5703647572
 30
0.0
 10
303.7413681396
 20
244.5899745575
 30
0.0
 10
303.7011350733
 20
244.594394582
 30
0.0
 10
303.6814556435
 20
244.5943971833
 30
0.0
  0
SPLINE
  5
3F2
100
AcDbEntity
  8
0
100
AcDbSpline
 62
7
  6
CONTINUOUS
 70
0
 71
3
 72
11
 73
7
 74
0
 42
0.0000001
 43
0.0000001
 44
0.0000000001
 40
0.0
 40
0.0
 40
0.0
 40
0.0
 40
0.2579957917
 40
0.5093024263
 40
0.7558791373
 40
1.0
 40
1.0
 40
1.0
 40
1.0
 10
322.1462049199
 20
238.4005040505
 30
0.0
 10
322.1871397117
 20
238.3749314813
 30
0.0
 10
322.2648964791
 20
238.3193188542
 30
0.0
 10
322.3681728372
 20
238.222084324
 30
0.0
 10
322.4551578281
 20
238.1133164814
 30
0.0
 10
322.5017101736
 20
238.0337498257
 30
0.0
 10
322.5218283756
 20
237.9927493677
 30
0.0
  0
SPLINE
  5
3F3
100
AcDbEntity
  8
0
100
AcDbSpline
 62
7
  6
CONTINUOUS
 70
0
 71
3
 72
15
 73
11
 74
0
 42
0.0000001
 43
0.0000001
 44
0.0000000001
 40
0.0
 40
0.0
 40
0.0
 40
0.0
 40
0.1296685824
 40
0.2645465119
 40
0.4012566049
 40
0.5362787833
 40
0.6662244151
 40
0.7881222688
 40
0.8997429499
 40
1.0
 40
1.0
 40
1.0
 40
1.0
 10
317.6916970067
 20
244.1326475263
 30
0.0
 10
317.8016983112
 20
244.1326475263
 30
0.0
 10
318.0263035135
 20
244.1174648451
 30
0.0
 10
318.3615403881
 20
244.0545673723
 30
0.0
 10
318.6920302995
 20
243.9532725998
 30
0.0
 10
319.0053161264
 20
243.8173714719
 30
0.0
 10
319.2897114009
 20
243.651952831
 30
0.0
 10
319.5346982342
 20
243.4630330041
 30
0.0
 10
319.7311913759
 20
243.2575598336
 30
0.0
 10
319.8303450333
 20
243.105752164
 30
0.0
 10
319.8678134905
 20
243.029399432
 30
0.0
  0
SPLINE
  5
3F4
100
AcDbEntity
  8
0
100
AcDbSpline
 62
7
  6
CONTINUOUS
 70
0
 71
3
 72
11
 73
7
 74
0
 42
0.0000001
 43
0.0000001
 44
0.0000000001
 40
0.0
 40
0.0
 40
0.0
 40
0.0
 40
0.2336613648
 40
0.4744504135
 40
0.7285791741
 40
1.0
 40
1.0
 40
1.0
 40
1.0
 10
258.1748977169
 20
222.880831546
 30
0.0
 10
258.1623172727
 20
222.8401072493
 30
0.0
 10
258.1458182019
 20
222.7543403158
 30
0.0
 10
258.1487350445
 20
222.6205879139
 30
0.0
 10
258.1788087925
 20
222.4832947327
 30
0.0
 10
258.2149799367
 20
222.3940159069
 30
0.0
 10
258.2367916598
 20
222.3495682628
 30
0.0
  0
SPLINE
  5
3F5
100
AcDbEntity
  8
0
100
AcDbSpline
 62
7
  6
CONTINUOUS
 70
0
 71
3
 72
15
 73
11
 74
0
 42
0.0000001
 43
0.0000001
 44
0.0000000001
 40
0.0
 40
0.0
 40
0.0
 40
0.0
 40
0.1002491534
 40
0.2118839856
 40
0.3337758461
 40
0.463722266
 40
0.5987463063
 40
0.7354469213
 40
0.8703430901
 40
1.0
 40
1.0
 40
1.0
 40
1.0
 10
313.5004569484
 20
222.3495682628
 30
0.0
 10
313.4624600574
 20
222.4269978303
 30
0.0
 10
313.3618880642
 20
222.580956216
 30
0.0
 10
313.1626228729
 20
222.7893586722
 30
0.0
 10
312.9141389659
 20
222.9809423952
 30
0.0
 10
312.6257216944
 20
223.1487202886
 30
0.0
 10
312.307991102
 20
223.2865314794
 30
0.0
 10
311.9728118788
 20
223.3892873694
 30
0.0
 10
311.6328186898
 20
223.4530583336
 30
0.0
 10
311.4050234671
 20
223.4684660479
 30
0.0
 10
311.2934720223
 20
223.4684660479
 30
0.0
  0
SPLINE
  5
3F6
100
AcDbEntity
  8
0
100
AcDbSpline
 62
7
  6
CONTINUOUS
 70
0
 71
3
 72
9
 73
5
 74
0
 42
0.0000001
 43
0.0000001
 44
0.0000000001
 40
0.0
 40
0.0
 40
0.0
 40
0.0
 40
0.255225267
 40
1.0
 40
1.0
 40
1.0
 40
1.0
 10
319.8183823522
 20
242.7944013505
 30
0.0
 10
319.8244192784
 20
242.8139368689
 30
0.0
 10
319.8463638099
 20
242.8909912213
 30
0.0
 10
319.8612736243
 20
242.9700922985
 30
0.0
 10
319.8678134905
 20
243.029399432
 30
0.0
  0
SPLINE
  5
3F7
100
AcDbEntity
  8
0
100
AcDbSpline
 62
7
  6
CONTINUOUS
 70
0
 71
3
 72
15
 73
11
 74
0
 42
0.0000001
 43
0.0000001
 44
0.0000000001
 40
0.0
 40
0.0
 40
0.0
 40
0.0
 40
0.1296545995
 40
0.2645498472
 40
0.401251164
 40
0.5362755706
 40
0.6662226548
 40
0.7881150066
 40
0.8997505088
 40
1.0
 40
1.0
 40
1.0
 40
1.0
 10
317.611397426
 20
243.9132991357
 30
0.0
 10
317.7229468836
 20
243.9132991357
 30
0.0
 10
317.9507393962
 20
243.8978926283
 30
0.0
 10
318.2907303741
 20
243.834121676
 30
0.0
 10
318.6259101868
 20
243.7313673466
 30
0.0
 10
318.9436422433
 20
243.5935556823
 30
0.0
 10
319.2320609738
 20
243.4257777375
 30
0.0
 10
319.48054649
 20
243.2341934809
 30
0.0
 10
319.6798126829
 20
243.0257901888
 30
0.0
 10
319.7803853329
 20
242.8718311793
 30
0.0
 10
319.8183823522
 20
242.7944013505
 30
0.0
  0
SPLINE
  5
3F8
100
AcDbEntity
  8
0
100
AcDbSpline
 62
7
  6
CONTINUOUS
 70
0
 71
3
 72
9
 73
5
 74
0
 42
0.0000001
 43
0.0000001
 44
0.0000000001
 40
0.0
 40
0.0
 40
0.0
 40
0.0
 40
0.2388584686
 40
1.0
 40
1.0
 40
1.0
 40
1.0
 10
317.6916970067
 20
244.1326475263
 30
0.0
 10
317.6843062546
 20
244.1155754924
 30
0.0
 10
317.6544816335
 20
244.0436197588
 30
0.0
 10
317.6288998084
 20
243.9699369184
 30
0.0
 10
317.611397426
 20
243.9132991357
 30
0.0
  0
SPLINE
  5
3F9
100
AcDbEntity
  8
0
100
AcDbSpline
 62
7
  6
CONTINUOUS
 70
0
 71
3
 72
11
 73
7
 74
0
 42
0.0000001
 43
0.0000001
 44
0.0000000001
 40
0.0
 40
0.0
 40
0.0
 40
0.0
 40
0.2438774239
 40
0.4903500165
 40
0.7418501124
 40
1.0
 40
1.0
 40
1.0
 40
1.0
 10
322.5218283756
 20
237.9927493677
 30
0.0
 10
322.5423294935
 20
237.9509685352
 30
0.0
 10
322.5772989767
 20
237.8637344805
 30
0.0
 10
322.6101509781
 20
237.7255318612
 30
0.0
 10
322.623111476
 20
237.5813607214
 30
0.0
 10
322.6185879124
 20
237.483876932
 30
0.0
 10
322.613188328
 20
237.4349105064
 30
0.0
  0
SPLINE
  5
3FA
100
AcDbEntity
  8
0
100
AcDbSpline
 62
7
  6
CONTINUOUS
 70
0
 71
3
 72
9
 73
5
 74
0
 42
0.0000001
 43
0.0000001
 44
0.0000000001
 40
0.0
 40
0.0
 40
0.0
 40
0.0
 40
0.4747940515
 40
1.0
 40
1.0
 40
1.0
 40
1.0
 10
259.7226976702
 20
222.4026199535
 30
0.0
 10
259.7201647647
 20
222.3943923196
 30
0.0
 10
259.7188681455
 20
222.3756827999
 30
0.0
 10
259.7247154549
 20
222.3581171207
 30
0.0
 10
259.7289106226
 20
222.3495682628
 30
0.0
  0
SPLINE
  5
3FB
100
AcDbEntity
  8
0
100
AcDbSpline
 62
7
  6
CONTINUOUS
 70
0
 71
3
 72
11
 73
7
 74
0
 42
0.0000001
 43
0.0000001
 44
0.0000000001
 40
0.0
 40
0.0
 40
0.0
 40
0.0
 40
0.2701563001
 40
0.5247060359
 40
0.7664580326
 40
1.0
 40
1.0
 40
1.0
 40
1.0
 10
329.7017317671
 20
222.6542412183
 30
0.0
 10
329.721318878
 20
222.6143268599
 30
0.0
 10
329.7544403151
 20
222.5342229086
 30
0.0
 10
329.7849116783
 20
222.4112778566
 30
0.0
 10
329.7938156081
 20
222.2908898871
 30
0.0
 10
329.7850949733
 20
222.2125969653
 30
0.0
 10
329.77713453
 20
222.1749948631
 30
0.0
  0
SPLINE
  5
3FC
100
AcDbEntity
  8
0
100
AcDbSpline
 62
7
  6
CONTINUOUS
 70
0
 71
3
 72
15
 73
11
 74
0
 42
0.0000001
 43
0.0000001
 44
0.0000000001
 40
0.0
 40
0.0
 40
0.0
 40
0.0
 40
0.0931572712
 40
0.1905105103
 40
0.2956243591
 40
0.4111033474
 40
0.5386596325
 40
0.6792474645
 40
0.8331682282
 40
1.0
 40
1.0
 40
1.0
 40
1.0
 10
303.6814556435
 20
244.5943971833
 30
0.0
 10
303.6599409312
 20
244.5944000272
 30
0.0
 10
303.615782
 20
244.5891041207
 30
0.0
 10
303.5511337175
 20
244.5656408148
 30
0.0
 10
303.4880764951
 20
244.5272179768
 30
0.0
 10
303.4270407901
 20
244.4744196205
 30
0.0
 10
303.3683623059
 20
244.4077437088
 30
0.0
 10
303.31238851
 20
244.3277384092
 30
0.0
 10
303.2595632378
 20
244.2350689576
 30
0.0
 10
303.2279240316
 20
244.1680062105
 30
0.0
 10
303.212616701
 20
244.1326475263
 30
0.0
  0
SPLINE
  5
3FD
100
AcDbEntity
  8
0
100
AcDbSpline
 62
7
  6
CONTINUOUS
 70
0
 71
3
 72
15
 73
11
 74
0
 42
0.0000001
 43
0.0000001
 44
0.0000000001
 40
0.0
 40
0.0
 40
0.0
 40
0.0
 40
0.0996729406
 40
0.2028892182
 40
0.3126148033
 40
0.4309219279
 40
0.5588722079
 40
0.696752674
 40
0.8442155605
 40
1.0
 40
1.0
 40
1.0
 40
1.0
 10
264.4928778954
 20
243.3258415213
 30
0.0
 10
264.5065801659
 20
243.3701484302
 30
0.0
 10
264.5453726817
 20
243.457332969
 30
0.0
 10
264.6339121887
 20
243.5741302519
 30
0.0
 10
264.7508824218
 20
243.6759687002
 30
0.0
 10
264.8937779452
 20
243.7611892294
 30
0.0
 10
265.0598783457
 20
243.8287583325
 30
0.0
 10
265.2463524289
 20
243.8776400232
 30
0.0
 10
265.4498597552
 20
243.9070453997
 30
0.0
 10
265.5910663592
 20
243.9132991357
 30
0.0
 10
265.6635520547
 20
243.9132991357
 30
0.0
  0
SPLINE
  5
3FE
100
AcDbEntity
  8
0
100
AcDbSpline
 62
7
  6
CONTINUOUS
 70
0
 71
3
 72
15
 73
11
 74
0
 42
0.0000001
 43
0.0000001
 44
0.0000000001
 40
0.0
 40
0.0
 40
0.0
 40
0.0
 40
0.1726624133
 40
0.331875144
 40
0.4763703131
 40
0.6058449685
 40
0.7207528679
 40
0.8225753758
 40
0.9141486271
 40
1.0
 40
1.0
 40
1.0
 40
1.0
 10
265.6635520547
 20
243.9132991357
 30
0.0
 10
265.6792870858
 20
243.9642177622
 30
0.0
 10
265.7126162037
 20
244.0611819486
 30
0.0
 10
265.7706915219
 20
244.196435936
 30
0.0
 10
265.8343548908
 20
244.314259619
 30
0.0
 10
265.9027957337
 20
244.4132331546
 30
0.0
 10
265.9754126431
 20
244.4922038115
 30
0.0
 10
266.0516292454
 20
244.5502524716
 30
0.0
 10
266.1309584717
 20
244.5861065129
 30
0.0
 10
266.1859904405
 20
244.5943904314
 30
0.0
 10
266.2124895533
 20
244.5944011725
 30
0.0
  0
SPLINE
  5
3FF
100
AcDbEntity
  8
0
100
AcDbSpline
 62
7
  6
CONTINUOUS
 70
0
 71
3
 72
11
 73
7
 74
0
 42
0.0000001
 43
0.0000001
 44
0.0000000001
 40
0.0
 40
0.0
 40
0.0
 40
0.0
 40
0.2336613648
 40
0.4744504135
 40
0.7285791741
 40
1.0
 40
1.0
 40
1.0
 40
1.0
 10
323.4457003063
 20
201.6781448474
 30
0.0
 10
323.4582807504
 20
201.7188691441
 30
0.0
 10
323.4747798212
 20
201.8046360776
 30
0.0
 10
323.4718629787
 20
201.9383884795
 30
0.0
 10
323.4417892307
 20
202.0756816607
 30
0.0
 10
323.4056180865
 20
202.1649604865
 30
0.0
 10
323.3838063633
 20
202.2094081306
 30
0.0
  0
SPLINE
  5
400
100
AcDbEntity
  8
0
100
AcDbSpline
 62
7
  6
CONTINUOUS
 70
0
 71
3
 72
11
 73
7
 74
0
 42
0.0000001
 43
0.0000001
 44
0.0000000001
 40
0.0
 40
0.0
 40
0.0
 40
0.0
 40
0.2114537872
 40
0.4633497929
 40
0.7352952813
 40
1.0
 40
1.0
 40
1.0
 40
1.0
 10
269.6122600375
 20
202.2094081306
 30
0.0
 10
269.6202555333
 20
202.193115014
 30
0.0
 10
269.6467112052
 20
202.161922598
 30
0.0
 10
269.7000491097
 20
202.1272404969
 30
0.0
 10
269.7640842398
 20
202.1037433527
 30
0.0
 10
269.8102387672
 20
202.0975183521
 30
0.0
 10
269.8329585301
 20
202.0975183521
 30
0.0
  0
SPLINE
  5
401
100
AcDbEntity
  8
0
100
AcDbSpline
 62
7
  6
CONTINUOUS
 70
0
 71
3
 72
11
 73
7
 74
0
 42
0.0000001
 43
0.0000001
 44
0.0000000001
 40
0.0
 40
0.0
 40
0.0
 40
0.0
 40
0.2390807018
 40
0.4828826424
 40
0.7356719088
 40
1.0
 40
1.0
 40
1.0
 40
1.0
 10
329.6597261923
 20
223.4472114611
 30
0.0
 10
329.6882411582
 20
223.3890847549
 30
0.0
 10
329.733728308
 20
223.2653126
 30
0.0
 10
329.763169976
 20
223.0669919139
 30
0.0
 10
329.7537998314
 20
222.8599962978
 30
0.0
 10
329.7228659587
 20
222.7226315509
 30
0.0
 10
329.7017317671
 20
222.6542412183
 30
0.0
  0
SPLINE
  5
402
100
AcDbEntity
  8
0
100
AcDbSpline
 62
7
  6
CONTINUOUS
 70
0
 71
3
 72
12
 73
8
 74
0
 42
0.0000001
 43
0.0000001
 44
0.0000000001
 40
0.0
 40
0.0
 40
0.0
 40
0.0
 40
0.2642121429
 40
0.5361929853
 40
0.7879842179
 40
0.9000104701
 40
1.0
 40
1.0
 40
1.0
 40
1.0
 10
270.123437859
 20
203.037510678
 30
0.0
 10
270.1007414172
 20
203.037510678
 30
0.0
 10
270.0545854717
 20
203.0438203431
 30
0.0
 10
269.9905777674
 20
203.0671250489
 30
0.0
 10
269.9442263722
 20
203.0974089103
 30
0.0
 10
269.9166313971
 20
203.1263454862
 30
0.0
 10
269.9065233335
 20
203.1416895379
 30
0.0
 10
269.9027393664
 20
203.1494004565
 30
0.0
  0
SPLINE
  5
403
100
AcDbEntity
  8
0
100
AcDbSpline
 62
7
  6
CONTINUOUS
 70
0
 71
3
 72
11
 73
7
 74
0
 42
0.0000001
 43
0.0000001
 44
0.0000000001
 40
0.0
 40
0.0
 40
0.0
 40
0.0
 40
0.3035453579
 40
0.5700866079
 40
0.7978084662
 40
1.0
 40
1.0
 40
1.0
 40
1.0
 10
321.7808039014
 20
202.0975183521
 30
0.0
 10
321.7948924476
 20
202.0975183521
 30
0.0
 10
321.8214524484
 20
202.0997781989
 30
0.0
 10
321.8571411638
 20
202.1109799805
 30
0.0
 10
321.8843458561
 20
202.1296380797
 30
0.0
 10
321.8951392196
 20
202.1473874536
 30
0.0
 10
321.897900353
 20
202.15635644
 30
0.0
  0
SPLINE
  5
404
100
AcDbEntity
  8
0
100
AcDbSpline
 62
7
  6
CONTINUOUS
 70
0
 71
3
 72
15
 73
11
 74
0
 42
0.0000001
 43
0.0000001
 44
0.0000000001
 40
0.0
 40
0.0
 40
0.0
 40
0.0
 40
0.1557895
 40
0.3032548536
 40
0.4411358449
 40
0.5690848779
 40
0.6873891275
 40
0.7971114135
 40
0.9003257311
 40
1.0
 40
1.0
 40
1.0
 40
1.0
 10
259.345626651
 20
223.4684660479
 30
0.0
 10
259.2731290326
 20
223.4684660479
 30
0.0
 10
259.1319002311
 20
223.4622104686
 30
0.0
 10
258.9283629634
 20
223.4327952631
 30
0.0
 10
258.7418656409
 20
223.3838978824
 30
0.0
 10
258.5757499944
 20
223.3163070589
 30
0.0
 10
258.4328485973
 20
223.2310595465
 30
0.0
 10
258.3158827258
 20
223.129189719
 30
0.0
 10
258.2273606403
 20
223.0123564926
 30
0.0
 10
258.1885881973
 20
222.9251491535
 30
0.0
 10
258.1748977169
 20
222.880831546
 30
0.0
  0
ENDSEC
  0
SECTION
  2
OBJECTS
  0
DICTIONARY
  5
405
100
AcDbDictionary
  3
ACAD_GROUP
350
406
  3
ACAD_MLINESTYLE
350
407
  0
DICTIONARY
  5
406
102
{ACAD_REACTORS
330
405
102
}
100
AcDbDictionary
  0
DICTIONARY
  5
407
102
{ACAD_REACTORS
330
405
102
}
100
AcDbDictionary
  3
STANDARD
350
408
  0
MLINESTYLE
  5
408
102
{ACAD_REACTORS
330
407
102
}
100
AcDbMlineStyle
  2
STANDARD
 70
0
  3

 62
256
 51
90.0
 52
90.0
 71
2
 49
0.5
 62
256
  6
BYLAYER
 49
-0.5
 62
256
  6
BYLAYER
  0
ENDSEC
  0
EOF
